<?xml version="1.0" standalone="no"?>
<!DOCTYPE svg PUBLIC "-//W3C//DTD SVG 1.1//EN" "http://www.w3.org/Graphics/SVG/1.1/DTD/svg11.dtd" >
<svg xmlns="http://www.w3.org/2000/svg" xmlns:xlink="http://www.w3.org/1999/xlink" version="1.1">
<metadata></metadata>
<defs>
<font id="careermedium" horiz-adv-x="616" >
<font-face units-per-em="2048" ascent="1638" descent="-410" />
<missing-glyph horiz-adv-x="753" />
<glyph unicode="a&#xb4;" horiz-adv-x="1052" d="M53 633v4q0 68 80 168q79 94 212 166.5t273 72.5q216 0 273 -163q14 -51 14 -88v-666q0 -46 47 -59q1 0 4 -1t4 -1q21 0 62 26l14 -10q-28 -37 -88 -69.5t-117 -32.5q-91 0 -144 39.5t-56 115.5q-49 -69 -146.5 -112t-189.5 -43q-95 0 -166.5 59t-71.5 147v7 q0 56 24.5 102t78 84t85 55t99.5 48q14 7 21 10q36 16 266 107v282q0 59 -16 89t-64 31q-89 0 -142 -40t-53 -121l2 -97q0 -98 -43 -161.5t-125 -63.5h-4q-54 0 -93.5 32.5t-39.5 82.5zM297 1167q106 0 158.5 3t118.5 22t119 58q39 28 53 66t7.5 70.5t-26.5 59.5 q-33 45 -91.5 49.5t-104 -30t-45.5 -90.5q0 -71 -41 -121.5t-130 -50.5zM340 256q1 -31 3.5 -54.5t11 -49t22 -42t37 -27.5t55.5 -11q40 0 88 33.5t74 82.5v373q-59 -19 -93 -32.5t-77 -38t-66 -52t-39 -70.5t-16 -98v-14z" />
<glyph unicode="e`" horiz-adv-x="1112" d="M68 510q0 148 69.5 270.5t192 193t270.5 70.5q97 0 182.5 -43t141.5 -110t88 -146.5t32 -154.5h-274h-413q10 -79 38.5 -150.5t74.5 -130t114.5 -93t150.5 -34.5q28 0 50.5 2t56.5 10.5t62.5 24t60 45t57.5 70.5l20 -2q0 -3 -5.5 -21.5t-20.5 -51.5t-37 -69.5t-58 -74.5 t-80 -68.5t-107.5 -50t-135.5 -19.5q-227 0 -378.5 152t-151.5 381zM323.5 1386.5q6.5 32.5 26.5 59.5q33 45 91.5 49.5t104 -30t45.5 -90.5q0 -71 41 -121.5t130 -50.5l18 -36q-106 0 -158.5 3t-118.5 22t-119 58q-39 28 -53 66t-7.5 70.5zM353 627h417q0 46 -1.5 80.5 t-6 76.5t-11.5 72.5t-20 61t-30.5 49.5t-43 31t-57.5 12q-85 0 -144.5 -55.5t-84 -141t-18.5 -186.5z" />
<glyph unicode="e&#xb4;" horiz-adv-x="1112" d="M68 510q0 148 69.5 270.5t192 193t270.5 70.5q97 0 182.5 -43t141.5 -110t88 -146.5t32 -154.5h-274h-413q10 -79 38.5 -150.5t74.5 -130t114.5 -93t150.5 -34.5q28 0 50.5 2t56.5 10.5t62.5 24t60 45t57.5 70.5l20 -2q0 -3 -5.5 -21.5t-20.5 -51.5t-37 -69.5t-58 -74.5 t-80 -68.5t-107.5 -50t-135.5 -19.5q-227 0 -378.5 152t-151.5 381zM353 627h417q0 46 -1.5 80.5t-6 76.5t-11.5 72.5t-20 61t-30.5 49.5t-43 31t-57.5 12q-85 0 -144.5 -55.5t-84 -141t-18.5 -186.5zM379 1167q106 0 158.5 3t118.5 22t119 58q39 28 53 66t7.5 70.5 t-26.5 59.5q-33 45 -91.5 49.5t-104 -30t-45.5 -90.5q0 -71 -41 -121.5t-130 -50.5z" />
<glyph unicode="&#xfb01;" horiz-adv-x="1091" d="M42 0v16l31 9q31 6 61 30q31 25 31 56v778h-115v18q37 51 74.5 134t65 162t64 162.5t72 145.5t88.5 102t115 40q72 0 134 -27.5t102.5 -70t69 -94t41 -97.5t12.5 -82q0 -91 -54.5 -138.5t-123.5 -47.5q-56 0 -99.5 29.5t-63 73.5t-7.5 100t59 103q44 44 47.5 97t-32 88.5 t-93.5 35.5q-62 0 -103 -40t-48 -108q0 -102 33.5 -269t33.5 -223l1 -84q25 4 111.5 16.5t119 18.5t93.5 20t103.5 31t80.5 41l15 -2v-903q-1 -37 27 -62t65 -34l30 -9v-16q-263 33 -521 0h-1q-262 33 -519 0zM437 121q10 -50 33 -66q27 -21 61 -30l31 -8l30 8 q32 7 62.5 31.5t29.5 54.5v544q0 46 -23.5 86.5t-61.5 68.5t-79 47t-83 30v-766z" />
<glyph unicode="&#xfb02;" horiz-adv-x="1091" d="M42 0q256 32 509 1v-1q1 0 3 0.5t3 0.5t2.5 -0.5t2.5 -0.5v1q258 31 509 -1v16l-31 9q-34 9 -61 30q-31 22 -31 66v1515h-14q-31 -19 -100 -48q-38 -18 -80.5 -10t-71.5 24.5t-72 33.5t-81 17q-62 0 -115 -40t-88.5 -102t-72 -145.5t-64 -162.5t-65 -162t-74.5 -134v-18 h115v-778q0 -31 -31 -56q-30 -24 -61 -30l-31 -9v-16zM370 1475q7 68 48 108t103 40q15 0 32 -3.5t39.5 -16t40 -32t30 -55t12.5 -82.5l-1 -451h-231q0 56 -36.5 223t-36.5 269zM437 121v768h237l-2 -778q0 -34 -31 -56q-27 -24 -61 -30l-24 -7l-25 7q-34 9 -61 30 q-10 7 -18.5 23.5t-11.5 29.5z" />
<glyph unicode="&#xfb03;" horiz-adv-x="1609" d="M43 0v16l30 9q33 7 62 30q31 25 31 56v778h-115v18q37 51 74.5 134t65 162t64 162.5t72 145.5t88.5 102t115 40q69 0 118.5 -28t74.5 -74.5t36.5 -94t11.5 -100.5q34 72 56 113.5t56 90t71.5 71t80.5 22.5q75 0 137.5 -26t102 -66.5t67.5 -91t40 -98t12 -89.5 q0 -91 -54.5 -138.5t-123.5 -47.5q-56 0 -100 29.5t-63.5 73.5t-7.5 100t59 103q44 44 47.5 97t-31.5 88.5t-93 35.5q-62 0 -103 -40t-48 -108q0 -102 33.5 -269t33.5 -223v-84q24 4 111 16.5t119 18.5t93.5 20t103.5 31t80 41l14 -2l2 -903q-1 -37 27.5 -62t65.5 -34l30 -9 v-16q-263 33 -521 0h-1q-257 32 -504 2v-2q-1 0 -4 0.5t-4 0.5t-3.5 -0.5t-3.5 -0.5v2q-253 30 -505 -2zM370 1475q0 -102 37 -269t37 -223q49 0 91 22.5t77.5 67t62 89t57.5 110.5q-1 351 -210 351q-62 0 -107 -43t-45 -105zM438 121q10 -50 33 -66q27 -21 61 -30l23 -7 l24 7q31 6 61 30q31 25 31 56v778h-115h-118v-768zM943 121q10 -50 33 -66q27 -21 61 -30l31 -8l30 8q32 7 62.5 31.5t29.5 54.5v544q0 46 -23.5 86.5t-61.5 68.5t-79 47t-83 30v-766z" />
<glyph unicode="&#xfb04;" horiz-adv-x="1609" d="M43 0q253 32 507 2v-2q1 0 3 0.5t3 0.5t3.5 -0.5t3.5 -0.5v2q241 29 496 -1v-1q1 0 2.5 0.5t2.5 0.5t3 -0.5t3 -0.5v1q258 31 509 -1v16l-31 9q-34 9 -61 30q-31 22 -31 66v1515h-14q-20 -12 -34 -19.5t-21.5 -10.5t-21 -8t-24.5 -10q-38 -18 -80.5 -10t-71 24.5 t-71.5 33.5t-81 17q-35 0 -68 -17.5t-57 -42t-52 -69t-45 -79t-44 -91.5q0 41 -6.5 79.5t-23 79.5t-42.5 71t-69.5 49.5t-99.5 19.5q-62 0 -115 -40t-88.5 -102t-72 -145.5t-64 -162.5t-65 -162t-74.5 -134v-18h115v-778q0 -31 -31 -56q-29 -23 -62 -30l-30 -9v-16z M370 1475q0 62 45 105t107 43q101 0 155.5 -82t54.5 -270q-31 -65 -57.5 -110t-62 -89t-77.5 -66.5t-91 -22.5q0 56 -37 223t-37 269zM438 121v768h120h115v-778q0 -31 -31 -56q-29 -23 -62 -30l-24 -7l-24 7q-34 9 -61 30q-10 7 -18.5 23.5t-11.5 29.5zM877 1475 q7 68 48.5 108t103.5 40q15 0 32 -3.5t39.5 -16t40 -32t30 -55t12.5 -82.5l-1 -451h-231q0 56 -37 223t-37 269zM945 121v768h236l-1 -778q0 -34 -31 -56q-27 -24 -62 -30l-24 -7l-24 7q-34 9 -61 30q-10 7 -18.5 23.5t-11.5 29.5z" />
<glyph horiz-adv-x="0" />
<glyph horiz-adv-x="682" />
<glyph unicode=" "  horiz-adv-x="753" />
<glyph unicode="&#x09;" horiz-adv-x="753" />
<glyph unicode="&#xa0;" horiz-adv-x="753" />
<glyph unicode="!" horiz-adv-x="577" d="M119 150q0 73 48 125.5t120 52.5q73 0 122.5 -52.5t49.5 -125.5q0 -74 -49.5 -127.5t-122.5 -53.5q-72 0 -120 53t-48 128zM119 1464q0 51 15 95t55 77t100 33t100 -33t55 -77t15 -95q0 -146 -40 -412t-75.5 -459.5t-30.5 -199.5h-43q-17 82 -42 213.5t-67 420t-42 437.5 z" />
<glyph unicode="&#x22;" horiz-adv-x="632" d="M109 1584q0 40 21 71t64 31t63.5 -30.5t20.5 -71.5q0 -73 -20 -184t-37 -186.5t-15 -78.5h-22q-8 32 -20.5 83t-33.5 171.5t-21 194.5zM359 1584q0 40 21 71t64 31t63.5 -30.5t20.5 -71.5q0 -73 -20 -184t-37 -186.5t-15 -78.5h-21q-9 32 -21.5 83t-33.5 171.5t-21 194.5 z" />
<glyph unicode="#" horiz-adv-x="1054" d="M51 517l270 -52l-84 -470h60l82 459l195 -37l-74 -417h59l73 405l378 -72v62l-367 69l41 229l326 -62v62l-315 59l86 477h-62l-83 -466l-194 37l76 424h-62l-74 -413l-331 63v-60l321 -61l-41 -230l-280 53v-59zM390 512l41 229l194 -37l-41 -229z" />
<glyph unicode="$" horiz-adv-x="1253" d="M102 1147q0 -40 8 -77.5t19.5 -67.5t34 -60.5t41 -52t52.5 -47t56 -41t63.5 -39t64.5 -35t69 -35t66 -33.5q0 -107 0.5 -320t0.5 -319q-86 31 -173.5 126.5t-154 223t-95.5 255.5h-27q-1 -104 -5 -313t-5 -314h30q0 37 19.5 58.5t42.5 21.5t155.5 -45.5t212.5 -57.5v-143 h101v138q151 7 267.5 79t177.5 186.5t61 251.5q0 66 -15.5 124t-34 99.5t-62 85t-70 67.5t-89 59.5t-87.5 48t-95 45.5q-35 17 -52 25v573q65 -31 137 -104t124.5 -151.5t86.5 -149.5t34 -102h26l-37 541h-17q0 -4 -0.5 -10.5t-4.5 -23.5t-10.5 -30t-20.5 -23.5t-32 -10.5 q-24 0 -53 14.5t-56 33.5t-74.5 38.5t-102.5 27.5v173l-103 1v-170q-134 -7 -242.5 -78t-170 -187.5t-61.5 -255.5zM369 1384q0 239 207 250v-540q-100 56 -153.5 123.5t-53.5 166.5zM678 7v596q107 -64 166 -140t59 -184q0 -53 -11 -97t-35.5 -83t-70 -63t-108.5 -29z" />
<glyph unicode="%" horiz-adv-x="1206" d="M60 1253q0 85 25 152.5t64.5 105.5t81 58t80.5 20q38 0 80 -20t81 -58t64.5 -106t25.5 -152q0 -160 -71 -243.5t-180 -83.5t-180 83.5t-71 243.5zM104 182l98 -39l872 1335l-101 40zM218 1249q0 -312 93 -310q93 -2 93 310q0 181 -24 254t-69 73t-69 -73t-24 -254z M638 401q0 85 25 152.5t64.5 105.5t81 58t80.5 20q30 0 63 -11.5t66.5 -38.5t60 -64.5t43.5 -95.5t17 -126q0 -160 -71 -243.5t-180 -83.5t-179.5 83.5t-70.5 243.5zM796 397q0 -170 24 -240.5t68 -69.5q93 -2 93 310q0 182 -23.5 254.5t-68.5 72.5t-69 -73t-24 -254z" />
<glyph unicode="&#x26;" horiz-adv-x="1761" d="M57 416q0 -192 175 -319.5t451 -127.5q301 0 492 219q295 -207 379 -208l258 194q-30 0 -80 23.5t-133.5 80.5t-120.5 83.5t-137 99.5q27 63 55 143.5t47 133t34 75.5q40 59 103.5 105t107.5 62l43 17v17q-293 -59 -551 0v-17q4 -1 11 -3t27 -9.5t38 -16t39.5 -23.5 t36.5 -31.5t24.5 -39.5t7.5 -49q-1 -18 -3.5 -48.5t-19.5 -118t-45 -165.5q-53 39 -63 46q-308 214 -491 405q44 6 85.5 16.5t97 37.5t96 64.5t69 103t28.5 147.5q0 77 -24 139t-63 101.5t-91.5 66.5t-107 38t-111.5 11q-147 0 -258.5 -70t-169 -188t-57.5 -264t146 -323 q-18 -13 -66 -45.5t-75 -52t-67 -56.5t-62 -70.5t-38.5 -82t-16.5 -101.5zM323 415q0 94 18.5 168t37 107t51.5 79q58 -63 138.5 -132t130.5 -107t134 -98t87 -63q7 -4 219 -156q-177 -203 -458 -207q-156 3 -257 113t-101 296zM502 1384q0 26 6 57t22 65.5t39 62.5 t60.5 46.5t83.5 18.5q248 0 248 -321q0 -76 -17.5 -136.5t-42.5 -96.5t-60 -61.5t-63 -36t-58 -15.5q-218 237 -218 417z" />
<glyph unicode="'" horiz-adv-x="387" d="M109 1584q0 40 21 71t64 31t63.5 -30.5t20.5 -71.5q0 -73 -20 -184t-37 -186.5t-15 -78.5h-22q-8 32 -20.5 83t-33.5 171.5t-21 194.5z" />
<glyph unicode="(" horiz-adv-x="651" d="M78 807q0 -175 38 -333t98 -269t133 -194t142.5 -123t126.5 -40v35q-127 0 -182 214.5t-55 709.5t55 709.5t182 214.5v34q-40 0 -88 -20.5t-99.5 -63t-101.5 -101t-95 -140.5t-79.5 -176t-54.5 -212.5t-20 -244.5z" />
<glyph unicode=")" horiz-adv-x="651" d="M78 -117q127 0 182 214.5t55 709.5t-55 709.5t-182 214.5v34q40 0 88 -20.5t99.5 -63t101.5 -101t95 -140.5t79.5 -176t54.5 -212.5t20 -244.5q0 -175 -38 -333t-98 -269t-133 -194t-142.5 -123t-126.5 -40v35z" />
<glyph unicode="*" horiz-adv-x="829" d="M87 1173q0 26 18.5 38.5t42.5 12.5q63 0 233 -37q-139 87 -192 140q-17 17 -21 36.5t14 42.5q23 18 42.5 14t36.5 -21q46 -46 140 -193q-37 157 -37 236q0 24 12.5 42.5t38.5 18.5t38.5 -18.5t12.5 -42.5q0 -68 -39 -240q2 3 20 31.5t28.5 44t28 40.5t34 45t31.5 35 q11 11 23 17t27.5 5t28.5 -14q18 -23 14 -43t-21 -37q-57 -57 -191 -139q170 37 233 37q24 0 42.5 -12.5t18.5 -38.5t-18.5 -38.5t-42.5 -12.5q-76 0 -233 37q144 -93 190 -139q17 -17 21 -36.5t-14 -42.5q-35 -35 -79 8q-60 60 -139 189q37 -173 37 -231q0 -24 -12.5 -42.5 t-38.5 -18.5t-38.5 18.5t-12.5 42.5q0 73 35 226q-78 -126 -137 -185q-17 -17 -36.5 -21t-42.5 14q-35 35 8 79q52 52 191 139q-157 -37 -234 -37q-24 0 -42.5 12.5t-18.5 38.5z" />
<glyph unicode="+" horiz-adv-x="1105" d="M133 494v155h326v344h172v-344h334v-155h-334v-332h-172v332h-326z" />
<glyph unicode="," d="M75 -220l12 -38q98 31 168.5 84t108.5 118t55 131t17 138q0 62 -28 105.5t-67.5 62t-82.5 18.5q-55 0 -95.5 -33.5t-56.5 -80.5t-6.5 -101t46.5 -91q52 -52 70 -101t7 -83t-38 -62t-55 -43.5t-55 -23.5z" />
<glyph unicode="-" horiz-adv-x="712" d="M86 350v156h557v-156h-557z" />
<glyph unicode="." d="M96 160q0 73 48 125.5t120 52.5q73 0 122.5 -52.5t49.5 -125.5q0 -74 -49.5 -127t-122.5 -53q-72 0 -120 52.5t-48 127.5z" />
<glyph unicode="/" horiz-adv-x="604" d="M22 -150h74l487 1518h-76z" />
<glyph unicode="0" horiz-adv-x="1409" d="M61 807q0 175 43.5 323t112 245t155 165.5t171 98.5t162.5 30q77 0 161.5 -30t171 -98.5t155 -165.5t112 -245t43.5 -323q0 -209 -51 -372.5t-140 -263.5t-203.5 -151t-248.5 -51t-248.5 51t-204 151t-140.5 263.5t-51 372.5zM467 799q0 -224 17 -382t49 -247.5t74 -129 t97 -38.5q56 -1 97.5 38.5t74 129t49.5 247.5t17 382q0 241 -17 408t-49.5 259t-74 131t-96.5 39q-56 0 -97.5 -39t-74 -131t-49.5 -259t-17 -408z" />
<glyph unicode="1" horiz-adv-x="1013" d="M122 1432v15q270 41 560 192h18v-1465q0 -37 19.5 -66.5t48 -46t56.5 -27.5t48 -14l19 -4v-16q-147 32 -368.5 31t-368.5 -31v16q8 1 20.5 4t45.5 15t58 27.5t45.5 45.5t20.5 66l2 1111q0 58 -4.5 80.5t-16.5 34.5q-13 13 -30 20.5t-41 10t-40.5 3t-48 -0.5t-43.5 -1z " />
<glyph unicode="2" horiz-adv-x="1298" d="M102 1122h28q89 129 204 208t223 79q73 0 128 -27t84.5 -71t43.5 -91.5t14 -97.5q0 -67 -24.5 -129.5t-66 -114.5t-95 -102.5t-113 -101t-119 -102.5t-113 -113.5t-95 -128t-66 -151.5t-24.5 -179h2h37h953l77 499l-17 1q-1 -8 -3.5 -20.5t-14 -45t-27.5 -57.5 t-45.5 -45.5t-66.5 -20.5h-760q51 71 133.5 133.5t168.5 108.5t180 93t176 97.5t148.5 111t105 145t38.5 188.5q0 207 -137.5 344t-353.5 137q-62 0 -129 -19.5t-138.5 -63t-134.5 -106t-116.5 -155t-84.5 -203.5z" />
<glyph unicode="3" horiz-adv-x="1320" d="M60 312q0 -94 78 -173t213 -124.5t296 -45.5q126 0 229 44t165 108.5t104 143.5t58 144.5t16 116.5q0 149 -71.5 272.5t-189.5 179.5q155 118 155 325q0 88 -41.5 160.5t-106.5 115.5t-138.5 66.5t-144.5 23.5q-57 0 -116 -13t-115.5 -41t-101 -66.5t-72 -95.5 t-27.5 -122h24q0 16 24 37t75 38.5t112 17.5q50 0 99 -15.5t92 -45.5t69.5 -81t26.5 -115q0 -131 -73 -209t-231 -78l1 -28q165 0 269 -120.5t106 -294.5q0 -91 -7.5 -158.5t-28.5 -133t-65 -100.5t-110 -35q-181 0 -181 228q0 44 -3 77t-14.5 71.5t-31.5 62.5t-56 40.5 t-86 16.5q-53 -2 -92.5 -20.5t-59.5 -41t-32 -52t-14.5 -47.5t-2.5 -33z" />
<glyph unicode="4" horiz-adv-x="1402" d="M41 539l985 1190l14 2q-1 -4 0.5 -10.5t18 -24t48.5 -30.5v-1054h255q-40 -42 -63 -104t-23 -111h-169v-223q0 -37 19.5 -66.5t47 -46t55 -27.5t47.5 -14l19 -4v-16q-144 32 -359.5 31t-363.5 -31v16q8 1 21 4t45.5 15t58 27.5t46 45.5t20.5 66v223h-657q1 3 1.5 9 t-1.5 23t-7.5 33t-20.5 37.5t-37 39.5zM235 612h528v638z" />
<glyph unicode="5" horiz-adv-x="1126" d="M0 312q0 -147 152.5 -245t409.5 -98q95 0 176 31.5t137.5 84.5t100.5 119.5t69.5 141t38 143.5t12.5 132q0 120 -43 220t-127.5 175.5t-220.5 117.5t-311 42q-84 0 -171 -19q14 114 21 170q499 -2 749 0l67 398l-17 1q-1 -4 -2.5 -9.5t-11.5 -21t-24.5 -27t-43 -21 t-65.5 -9.5h-609h-54q-8 -57 -20.5 -161t-18.5 -150q-45 -356 -98 -566l24 -1q3 3 10.5 7.5t45 11.5t90.5 7q145 0 255 -38t176.5 -107t99 -159t31.5 -199q-1 -105 -74 -189t-164 -84q-199 0 -199 228q0 44 -3 77t-14.5 71.5t-31 62.5t-55.5 40.5t-86 16.5 q-53 -2 -92.5 -20.5t-59.5 -41t-32 -52t-14.5 -47.5t-2.5 -33z" />
<glyph unicode="6" horiz-adv-x="1323" d="M59 626q0 -76 24 -163t75.5 -176.5t122 -162t174 -118t221.5 -45.5q116 0 221.5 38.5t183.5 112.5q160 154 160 379q0 63 -18 130.5t-58 136t-96.5 122t-141.5 87.5t-184 34q-129 0 -225 -40q46 140 120 265.5t152.5 209t157 133t139.5 51.5l-8 16q-30 0 -80.5 -10.5 t-118 -33.5t-143 -56.5t-155 -82.5t-155 -107.5t-142.5 -136t-117 -163.5t-79.5 -194.5t-29.5 -225.5zM451 544q0 187 53 370q70 34 145 34q61 0 108 -29.5t75 -75.5t46 -109t24.5 -122t6.5 -123q0 -62 -1.5 -106.5t-6.5 -100t-14.5 -93.5t-27 -77.5t-41.5 -63t-60 -38.5 t-82 -15q-54 0 -93.5 19t-63.5 62t-38.5 85.5t-20.5 116.5t-7.5 125t-1.5 141z" />
<glyph unicode="7" horiz-adv-x="1251" d="M33 1240h17q1 4 4 9.5t14.5 21t26.5 27t42.5 21t59.5 9.5h814q-78 -102 -151 -205.5t-165 -254t-160 -288.5t-117.5 -294.5t-55.5 -285.5h418q0 191 35 400t93 394.5t107.5 316t103.5 248.5l67 138v1v141h-1027z" />
<glyph unicode="8" horiz-adv-x="1234" d="M39 416q0 39 7.5 75.5t19 64.5t31 57.5t36.5 49t44 44.5t44 38.5t46 36.5t42 33q-190 133 -190 332q0 144 68 263.5t189 189t269 69.5q59 0 118.5 -11.5t122.5 -40t111.5 -71.5t79.5 -112.5t31 -155.5q0 -72 -21.5 -130.5t-58.5 -96t-73.5 -60.5t-78.5 -38 q57 -30 100.5 -59t87.5 -71t72 -89t46 -110t18 -137q0 -104 -47 -199.5t-126 -165.5t-189 -111.5t-231 -41.5q-271 0 -419.5 125t-148.5 322zM247 415q0 -73 24 -140t63 -114.5t86.5 -83.5t95.5 -53.5t89 -17.5q143 0 229 81t86 192q0 68 -26.5 125.5t-65.5 97.5t-100.5 80 t-115.5 66.5t-128 64.5t-122 67q-24 -34 -32.5 -46t-28.5 -50t-29 -69.5t-17 -85t-8 -114.5zM385 1384q0 -42 11.5 -79.5t28 -66t47 -57t57.5 -48t70.5 -43.5t74.5 -39t82 -39t81 -39q109 69 113 305q-1 85 -22 150.5t-52.5 103.5t-74.5 62t-82 32t-82 8q-55 0 -100 -18.5 t-72.5 -46.5t-46 -63t-26 -65.5t-7.5 -56.5z" />
<glyph unicode="9" horiz-adv-x="1251" d="M59 1106q0 -63 16 -127t53.5 -128t91.5 -113.5t136.5 -80t182.5 -30.5q140 0 236 45q-44 -147 -118.5 -280t-155.5 -221t-162.5 -140.5t-143.5 -54.5l8 -15q30 0 80.5 10.5t118 33.5t143 56.5t155 82.5t155 107.5t142.5 136t117 163.5t79.5 194.5t29.5 225.5 q0 76 -24 163t-75.5 176.5t-122 162t-174 118t-221.5 45.5q-227 0 -387 -151q-160 -154 -160 -379zM391 1108v13q0 82 1 123t6.5 108.5t19.5 103t36.5 74.5t61 55.5t90.5 16.5q54 0 93.5 -19t63.5 -62t38.5 -85.5t20.5 -116.5t7.5 -125t1.5 -141q0 -168 -43 -334 q-73 -39 -155 -39q-51 0 -91 17.5t-65.5 50.5t-43 72t-26.5 91t-12.5 97t-3.5 100z" />
<glyph unicode=":" d="M96 160q0 73 48 125.5t120 52.5q73 0 122.5 -52.5t49.5 -125.5q0 -74 -49.5 -127t-122.5 -53q-72 0 -120 52.5t-48 127.5zM96 866q0 73 48 126t120 53q73 0 122.5 -53t49.5 -126q0 -74 -49.5 -127t-122.5 -53q-72 0 -120 52.5t-48 127.5z" />
<glyph unicode=";" d="M75 -220l12 -38q98 31 168.5 84t108.5 118t55 131t17 138q0 62 -28 105.5t-67.5 62t-82.5 18.5q-55 0 -95.5 -33.5t-56.5 -80.5t-6.5 -101t46.5 -91q52 -52 70 -101t7 -83t-38 -62t-55 -43.5t-55 -23.5zM96 866q0 73 48 126t120 53q73 0 122.5 -53t49.5 -126 q0 -74 -49.5 -127t-122.5 -53q-72 0 -120 52.5t-48 127.5z" />
<glyph unicode="&#x3c;" horiz-adv-x="608" d="M82 486l485 -483v59q-225 358 -261 424q33 61 261 425v59z" />
<glyph unicode="=" horiz-adv-x="1105" d="M133 295v156h832v-156h-832zM133 684v156h832v-156h-832z" />
<glyph unicode="&#x3e;" horiz-adv-x="608" d="M41 3l485 483l-485 484v-59q225 -358 261 -424q-33 -61 -261 -425v-59z" />
<glyph unicode="?" horiz-adv-x="974" d="M35 1403q0 -51 40 -94t111 -43q78 -1 128 29.5t104 103.5q98 119 219 119q56 1 99 -15.5t68 -40.5t40.5 -57.5t20.5 -63t5 -59.5q0 -299 -467 -299l-190 10l51 -518l66 -2l20 197q81 0 165 20.5t162.5 63t139.5 100.5t98 140t37 175q0 34 -4.5 70t-18.5 84t-36.5 90 t-63 85t-93 73.5t-130.5 49.5t-172 19q-33 0 -72 -3t-100.5 -17.5t-109 -38t-82.5 -70t-35 -108.5zM125 160q0 73 48 125.5t120 52.5q73 0 122.5 -52.5t49.5 -125.5q0 -74 -49.5 -127t-122.5 -53q-72 0 -120 52.5t-48 127.5z" />
<glyph unicode="@" horiz-adv-x="1540" d="M62 342q1 75 10 153q20 138 89.5 264.5t173.5 221t244 150.5t291 56h19q120 -3 222 -41t175 -103t120.5 -151t64.5 -188t1 -211q-6 -43 -17.5 -82.5t-38 -87t-62.5 -82t-96 -58t-135 -23.5q-64 0 -152 -21q-97 -24 -148 -49l-9 7l25 107q-90 -124 -270 -124 q-139 0 -191.5 114.5t-12.5 285.5q21 94 68.5 178t111 147t144 100t164.5 37q100 0 138 -76l1 6l220 52l-148 -644q-5 -25 9.5 -54t50.5 -29q74 0 133.5 47.5t91 113t41.5 137.5q19 135 -14 257t-104 208t-172.5 137.5t-215.5 54.5h-14q-118 0 -238.5 -51t-219.5 -137.5 t-169 -210t-90 -260.5q-27 -188 19 -338.5t171 -243.5t314 -98h21q140 0 282 68l62 -24q-164 -79 -344 -79h-26q-103 3 -189.5 24.5t-149.5 59.5t-112 89.5t-77.5 113t-45.5 132t-16 145.5zM586 421.5q-3 -64.5 6.5 -122t40.5 -94t80 -37.5q59 -1 95.5 44.5t61.5 126.5 l82 359q8 58 6 103t-29.5 72t-80.5 27q-162 0 -244 -350q-15 -64 -18 -128.5z" />
<glyph unicode="A" horiz-adv-x="1710" d="M20 0l1 17q64 2 126.5 38.5t106 87.5t78 102t50.5 87l17 35l316 786q-41 72 -97 72l-6 11q22 16 40 32t29.5 27.5t25.5 30.5t20.5 29t23 36t24.5 39q19 30 47.5 90t47.5 105l19 45l13 5l590 -1489q14 -35 39.5 -65.5t52 -49t51.5 -31.5t41 -18l15 -6v-16q-141 19 -363 19 q-6 -1 -12 -1q-230 0 -377 -18v16q5 1 12 2.5t30 7t40 13t41 20t33.5 28t18 36.5t-6.5 46l-131 335h-484l-60 -154q-24 -65 -24 -115q0 -17 4 -33q12 -60 52 -97t84.5 -57t79.5 -26l35 -6v-16q-147 16 -319 16q-5 0 -10 1q-167 0 -314 -17zM505 537h458l-221 563l-9 18z" />
<glyph unicode="B" horiz-adv-x="1550" d="M53 0v16q8 1 21 4t45.5 15t58 27.5t46 45.5t20.5 66l3 1291q0 36 -19.5 65.5t-48 46t-56.5 27.5t-47 15l-20 4v16q140 -28 358 -28q65 0 186 13h2q21 2 52 6.5t56 6.5t61 3q61 0 116 -3t123 -13t124 -27t111.5 -46.5t93.5 -68.5t61 -97.5t23 -129.5q0 -84 -20.5 -149.5 t-53.5 -108t-83 -72.5t-103 -45.5t-119 -23.5q68 -10 127 -27.5t121 -50.5t106 -76.5t72 -110t28 -147.5q0 -92 -27.5 -164.5t-66 -118.5t-105.5 -78.5t-119.5 -48t-137 -24t-128.5 -9.5t-122 -1h-9h-8q-51 0 -163 14q-2 0 -4 0.5t-4 0.5q-121 15 -170 16q-228 0 -381 -31z M574 869zM600 174q-1 -139 175 -139q78 0 129.5 9t96.5 33.5t70 69t38.5 115.5t13.5 174q-1 116 -25.5 197t-71.5 126.5t-108 65.5t-143 20h-174zM601 869l174 -1q12 1 33 2q126 12 189.5 115t63.5 271q-7 349 -290 349q-116 0 -169 -16z" />
<glyph unicode="C" horiz-adv-x="1589" d="M57 831q1 -155 50 -294t130.5 -240.5t185.5 -177t216.5 -113t220.5 -37.5q88 0 174 25.5t139 55.5t106 55.5t83 25.5q26 0 45 -34.5t25 -69.5l7 -35h17v610h-17q-2 -12 -7 -34t-25.5 -84t-47 -118.5t-74.5 -125.5t-105 -118.5t-141 -83.5t-181 -34q-67 0 -123 17.5 t-96.5 42.5t-72 72t-52 87t-34.5 108t-21 113.5t-10.5 126t-4 122.5t-0.5 124v9v7.5v8.5q0 85 1 134.5t9 143.5t22.5 153.5t45 135t73.5 119.5t111 75t154 31q78 0 151 -27t129.5 -71t106 -101.5t84 -118.5t59.5 -120.5t37 -109.5t12 -85h17v644h-17q0 -5 -0.5 -13t-5 -28 t-13 -35.5t-26.5 -28t-42 -12.5q-21 0 -69.5 22t-102.5 48.5t-142 48.5t-178 22q-37 0 -94 -12.5t-133 -42.5t-154 -73.5t-154 -112t-135 -151.5t-96 -199t-37 -247z" />
<glyph unicode="D" horiz-adv-x="1751" d="M53 0v16q8 1 21 4t45.5 15t58 27.5t46 45.5t20.5 66l1 1291q0 36 -19.5 65.5t-48 46t-56.5 27.5t-47 15l-20 4v16q140 -28 358 -28q84 0 188 13v-35v35q23 2 53.5 6.5t56 6.5t61.5 3q87 0 173.5 -11t179 -37.5t174 -66.5t155 -102.5t126.5 -141t84 -186.5t31 -235 q0 -181 -45.5 -326t-127 -244t-197.5 -165t-252.5 -95.5t-296.5 -29.5q-51 0 -163 14q-2 0 -4 0.5t-4 0.5q-121 15 -170 16q-228 0 -381 -31zM600 174q-1 -139 175 -139q60 0 105 5t101.5 24t97.5 52.5t82.5 94.5t67.5 145.5t42.5 210.5t16.5 285q0 128 -17.5 236t-46.5 184 t-70.5 135.5t-86.5 96t-97.5 60t-100.5 32.5t-98 9q-56 0 -98.5 -4t-57.5 -8l-15 -4v-1415z" />
<glyph unicode="E" horiz-adv-x="1617" d="M52 1623q8 -1 20.5 -4t45.5 -15t58 -27.5t45 -45.5t20 -66l1 -1291q0 -36 -19.5 -65.5t-47.5 -46t-55.5 -27.5t-47.5 -15l-19 -4v-16h722h695l87 580h-19q-2 -11 -6 -31t-25 -76.5t-52 -108t-91 -114.5t-136 -108t-194 -76t-259 -31q-176 0 -175 139v625h62q9 0 24 -1 t59 -8.5t84 -20.5t89 -42t84 -67.5t59 -102t24 -141.5h20v798h-20q0 -78 -23.5 -141.5t-60.5 -102.5t-82 -67.5t-90.5 -41.5t-82.5 -20.5t-60 -8.5l-24 -1h-62v759q61 13 167 13q89 0 175 -24.5t152 -63t124.5 -85.5t99.5 -94t71 -85.5t45 -62.5l14 -25h19l-158 417 q-30 6 -82.5 16t-195.5 26t-264 16q-44 -1 -171 -14q-119 -13 -186 -13q-218 0 -358 28v-16z" />
<glyph unicode="F" horiz-adv-x="1490" d="M52 1623v16q140 -28 362 -28q65 0 186 13h2q123 13 169 14q121 0 256.5 -14.5t210.5 -29.5l75 -14l158 -417h-19q-5 9 -14.5 25t-43.5 61.5t-72 87t-99 92.5t-125.5 87.5t-151 61.5t-175.5 25q-122 0 -169 -14l-1 -758h61q9 0 24 1t59 8.5t84 20.5t89 42t84 67.5t59 102 t24 141.5h20v-798h-20q0 78 -23.5 141.5t-60.5 102.5t-82 67.5t-90.5 41.5t-82.5 20.5t-60 8.5l-24 1h-61l-1 -625q0 -37 19.5 -66.5t48 -46t56.5 -27.5t48 -14l19 -4v-16q-144 31 -357 31h-14q-222 -1 -367 -31v16q8 1 21 4t45.5 15t58 27.5t46 45.5t20.5 66l-1 1291 q0 36 -19.5 65.5t-48 46t-56.5 27.5t-47 15z" />
<glyph unicode="G" horiz-adv-x="1644" d="M53 831q1 -155 50 -294t130.5 -240.5t185.5 -177t216.5 -113t220.5 -37.5q88 0 177 25.5t146 55.5t113 55.5t86 25.5q26 0 45 -34.5t25 -69.5l7 -35h18v606q2 34 18.5 62t38.5 43t43 25t36 14l15 3v17q-140 -31 -379 -31h-15q-251 1 -399 31v-17q6 -1 16 -3t40 -9 t57 -15.5t59.5 -22.5t56.5 -29t40 -35.5t16 -42.5v-511q-121 -73 -262 -73q-67 0 -123 17.5t-96.5 42.5t-72 72t-52 87t-34.5 108t-21 113.5t-10.5 126t-4 122.5t-0.5 124v9v7.5v8.5q0 85 1 134.5t9 143.5t22.5 153.5t45 135t73.5 119.5t111 75t154 31q108 0 207 -50.5 t168 -127t121.5 -164.5t77.5 -164.5t25 -126.5h18v644h-18q0 -5 -0.5 -13t-5 -28t-13 -35.5t-26.5 -28t-42 -12.5q-21 0 -73 22t-109.5 48.5t-148.5 48.5t-181 22q-37 0 -94 -12.5t-133 -42.5t-154 -73.5t-154 -112t-135 -151.5t-96 -199t-37 -247z" />
<glyph unicode="H" horiz-adv-x="1824" d="M53 0v16q8 1 21 4t45.5 15t58 27.5t46 45.5t20.5 66v1290q0 36 -19.5 65.5t-48 46t-56.5 27.5t-48 15l-19 4v16q134 -27 354 -28h15q211 0 369 28v-16q-8 -1 -21 -4t-45.5 -15t-58 -27.5t-46 -45.5t-20.5 -66v-575h625v575q0 36 -19.5 65.5t-47.5 46t-56.5 27.5t-47.5 15 l-20 4v16q134 -27 354 -28h15q211 0 369 28v-16q-8 -1 -21 -4t-45.5 -15t-58 -27.5t-46 -45.5t-20.5 -66v-1290q0 -37 19.5 -66.5t47.5 -46t56.5 -27.5t47.5 -14l20 -4v-16q-153 31 -365 31h-13q-220 -1 -360 -31v16q8 1 21 4t45.5 15t58 27.5t46 45.5t20.5 66v651h-625 v-651q0 -37 19.5 -66.5t48 -46t56.5 -27.5t48 -14l19 -4v-16q-153 31 -365 31h-14q-220 -1 -359 -31z" />
<glyph unicode="I" horiz-adv-x="843" d="M53 0v16q8 1 21 4t45.5 15t58 27.5t46 45.5t20.5 66v1290q0 36 -19.5 65.5t-48 46t-56.5 27.5t-48 15l-19 4v16q150 -30 370 -32h19q207 0 349 32v-16q-8 -1 -21 -4t-45.5 -15t-58 -27.5t-46 -45.5t-20.5 -66v-1290q0 -37 19.5 -66.5t48 -46t56.5 -27.5t48 -14l19 -4v-16 q-143 31 -356 31h-13q-222 -1 -369 -31z" />
<glyph unicode="J" horiz-adv-x="1079" d="M0 262q0 -45 24 -92.5t69.5 -91t122 -71t169.5 -27.5q51 0 96 6.5t95 24t91 46.5t79.5 77.5t64.5 113t41.5 156.5t15.5 204l1 857q0 36 19.5 65.5t47.5 46t56 27.5t48 15l19 4v16q-134 -27 -353 -28h-15q-210 0 -369 28v-16q8 -1 20.5 -4t45.5 -15t58 -27.5t45.5 -45.5 t20.5 -66v-1223q0 -230 -114 -230q-90 0 -90 108q0 19 7.5 69.5t7.5 82.5q0 85 -48 122.5t-123 37.5q-72 -4 -112 -49t-40 -121z" />
<glyph unicode="K" horiz-adv-x="1730" d="M66 2v14q8 1 20.5 4t45.5 15t58 27.5t45.5 45.5t20.5 66v1290q0 36 -19.5 65.5t-47.5 46t-56 27.5t-47 15l-20 4v16q134 -27 354 -28h14q210 0 369 28v-16q-8 -1 -21 -4t-45.5 -15t-58 -27.5t-46 -45.5t-20.5 -66v-702q87 94 208 231t198 227l78 91q48 48 73 91.5t26 74 t-9.5 56.5t-30 42t-38 27.5t-32.5 15.5l-14 5v16q136 -28 265.5 -28.5t254.5 28.5l2 -16q-66 0 -199.5 -96t-269.5 -232l-161 -185l598 -980q7 -10 19.5 -25.5t43.5 -44.5t55 -35l31 -9v-16q-134 16 -310 16t-302 -16v16l30 9q32 8 39.5 35t-14.5 59l-440 705l-101 -116 v-534q0 -37 19.5 -66.5t48 -46t56.5 -27.5t48 -14l19 -4v-14q-153 16 -365 16h-13q-220 0 -359 -16z" />
<glyph unicode="L" horiz-adv-x="1468" d="M53 1622v16q137 -26 357 -27h16q210 0 365 27v-16q-8 -1 -20.5 -4t-45 -15t-57.5 -27.5t-45.5 -45.5t-20.5 -66v-1290q0 -139 177 -139q118 0 218 30.5t165 78.5t116 106.5t78.5 117.5t45.5 107t23 79l5 30h19l-85 -584h-585h-724v16q8 1 21 4t45.5 15t58 27.5t46 45.5 t20.5 66v1290q0 36 -20 65.5t-48 46t-56.5 27.5t-48.5 15z" />
<glyph unicode="M" horiz-adv-x="2273" d="M20 1638l3 -20q68 0 124 -16t92 -43t58 -52.5t37 -54.5l1 -1166q0 -44 -14.5 -82.5t-38 -65t-51.5 -48.5t-56 -35.5t-51.5 -22.5t-37.5 -12l-15 -4v-16q11 3 30 7t80 12.5t123 10.5q16 1 35 1q52 0 119 -5q91 -7 176 -26v16q-11 2 -28.5 7t-63 26.5t-80 49t-63 77.5 t-28.5 110q0 180 -0.5 540t-0.5 540l556 -1366h27l84 208h1l535 1333v-1367q0 -36 -19.5 -65.5t-47.5 -46t-56 -27.5t-48 -15l-19 -4v-16q139 30 359 31h13q212 0 365 -31v16q-8 1 -21 3.5t-45.5 14.5t-58 28t-46 45.5t-20.5 66.5v1243q0 40 14.5 74t46.5 63t90 46t137 18 l3 20q-95 -10 -164 -16t-128.5 -8t-88.5 -4q-9 -1 -20 -1q-23 -1 -55 3q-46 4 -57 5.5t-65 10t-69 10.5l-452 -1125l-459 1125q-132 -27 -292 -27t-350 27z" />
<glyph unicode="N" horiz-adv-x="1894" d="M20 1638l1 -19q41 0 81.5 -12t69 -28.5t51.5 -33.5t35 -29l11 -11l66 -76l1 -1143q0 -44 -14.5 -82.5t-38 -65t-51.5 -48.5t-56 -35.5t-51.5 -22.5t-38.5 -12l-14 -4v-16q0 -2 9 -2q17 0 69 8q78 12 204 20q24 2 48 2q106 0 233 -28v16q-11 2 -28.5 7t-63 26.5t-80 49 t-63 77.5t-28.5 110v550.5t-1 550.5l1223 -1407h18l-1 267q0 184 0.5 552.5t0.5 552.5q0 44 14.5 82.5t37.5 65t51.5 48.5t56.5 35.5t51 22.5t37 12l15 4v16q-128 -27 -269 -27t-218 13l-76 14v-16q11 -2 28.5 -7t63 -26.5t80 -49t63 -77.5t28.5 -110v-782l-912 1068 q-132 -27 -292.5 -27t-350.5 27z" />
<glyph unicode="O" horiz-adv-x="1630" d="M57 807q0 175 51 323t131.5 245t183 165.5t203 98.5t193.5 30q65 0 135.5 -15.5t144.5 -50t142.5 -84t129.5 -121.5t106 -158t71.5 -199t26.5 -240q0 -168 -40.5 -307t-110.5 -235t-166.5 -162t-207 -97t-232.5 -31q-123 0 -234 31.5t-207.5 98.5t-167.5 164 t-111.5 236.5t-40.5 307.5zM463 799q0 -177 21 -317t55.5 -228t81.5 -146t95.5 -81t101.5 -23t101 22.5t94.5 79.5t80.5 144t54.5 226.5t20.5 316.5q0 242 -23.5 408t-70.5 259t-108.5 132.5t-147.5 41.5q-69 -1 -121.5 -24.5t-98 -81.5t-74.5 -151.5t-45.5 -238.5 t-16.5 -339z" />
<glyph unicode="P" horiz-adv-x="1460" d="M52 0q146 30 368 31h13q214 0 357 -31v16q-8 1 -21 3.5t-45.5 14.5t-58 28t-46 45.5t-20.5 66.5v539h172q16 0 34 0.5t65 5t89 12.5t99.5 25t105 40.5t96.5 61t82.5 84t55 112.5t21.5 144q0 83 -30 152t-82 115.5t-116.5 81t-139.5 54t-144 28.5t-136 9q-37 -1 -61.5 -3 t-58.5 -6t-53 -6q-114 -14 -188 -14q-217 0 -357 28v-16q4 -1 11 -2t26.5 -6.5t37.5 -13t40 -20.5t38 -28.5t26.5 -38.5t10.5 -49v-1289q0 -36 -19.5 -65.5t-48 -46t-56.5 -27.5t-47 -15l-20 -4v-16zM599 738v848q54 18 172 18q64 0 114 -24t81.5 -62.5t52 -93t29.5 -109 t10 -116.5q0 -118 -31 -221t-98 -172t-158 -69z" />
<glyph unicode="Q" horiz-adv-x="1611" d="M57 807q0 127 26.5 239.5t71.5 198.5t106 157t129.5 120t142.5 82.5t144.5 49t135.5 15.5t135.5 -15.5t144.5 -50t142.5 -84t129.5 -121.5t106 -158t71.5 -199t26.5 -240q0 -168 -40 -306.5t-110.5 -234.5t-166.5 -162t-206.5 -96.5t-232.5 -30.5q-26 0 -78 4 q92 -40 135.5 -57t133.5 -47.5t174 -43.5t172 -13q83 0 139.5 50.5t71.5 131.5h16q-10 -102 -94 -181.5t-199.5 -118t-234.5 -38.5q-90 0 -179.5 30t-162 72.5t-143 85.5t-148 73t-150.5 30q-45 0 -81 -44.5t-38 -89.5h-16q0 109 83 168.5t240 68.5q-183 92 -290 282.5 t-107 472.5zM463 799q0 -177 20.5 -316.5t54 -227.5t80 -145.5t94.5 -80.5t101 -23t101 22.5t94.5 79t80 143.5t54 226t20.5 316q0 242 -23.5 408t-70.5 259t-108.5 132.5t-147.5 41.5q-86 -2 -147.5 -40.5t-108.5 -130.5t-70.5 -257t-23.5 -407z" />
<glyph unicode="R" horiz-adv-x="1654" d="M70 0q148 30 370 31h13q213 0 354 -31v16q-8 1 -21 3.5t-45.5 14.5t-58 28t-46 45.5t-20.5 66.5v538h43q37 0 61.5 -2t48.5 -12.5t39.5 -22t36.5 -40t36 -56.5t42.5 -81t51.5 -104t66 -136t84 -166q16 -32 13 -48t-18 -19l-31 -9v-16q138 31 281.5 31t264.5 -31v16 q-41 1 -73.5 20.5t-60 60.5t-48 83t-49.5 108q-6 16 -10 24q-181 393 -477 424q74 13 139 33t135.5 57.5t121 86t83 122.5t32.5 163q0 99 -42.5 177.5t-109 126.5t-154 80t-169.5 44t-164 12q-35 -1 -174 -15q-114 -14 -188 -14q-217 0 -357 28v-16q4 -1 11 -2t26.5 -6.5 t37.5 -13t40 -20.5t38 -28.5t26.5 -38.5t10.5 -49v-1289q0 -36 -19.5 -65.5t-47.5 -46t-56 -27.5t-47 -15l-20 -4v-16zM616 737l1 849q54 18 172 18q79 0 135 -35t85.5 -96.5t42.5 -127.5t15 -146q0 -106 -52.5 -210t-137 -172.5t-174.5 -78.5q-32 0 -39 -1h-48z" />
<glyph unicode="S" horiz-adv-x="1255" d="M102 1147q0 -78 27.5 -143.5t73.5 -112.5t106 -87.5t126.5 -74t133 -66t126.5 -70.5t106.5 -81t74 -102.5t27.5 -130.5q0 -56 -12.5 -102t-40 -86t-79.5 -62.5t-124 -22.5q-93 0 -197 94t-183.5 237t-112.5 288h-27q-1 -104 -5 -313t-5 -314h30q0 37 19.5 58.5t42.5 21.5 t100.5 -27t173 -54.5t164.5 -27.5q160 0 283.5 71t188.5 188t65 259q0 94 -28 171t-75 130t-108 96.5t-129 77t-135.5 65t-128.5 65.5t-108 73.5t-75 95t-28 123.5q0 250 225 250h2q58 0 126.5 -45.5t126.5 -113.5t107 -141.5t77 -135.5t28 -91h26l-37 541h-17 q0 -4 -0.5 -10.5t-4.5 -23.5t-10.5 -30t-20.5 -23.5t-32 -10.5q-26 0 -60.5 18.5t-67 41t-95.5 41t-138 18.5q-141 0 -256.5 -69.5t-180.5 -189t-65 -263.5zM117 -2z" />
<glyph unicode="T" horiz-adv-x="1626" d="M20 1098l107 569q9 -3 39.5 -8t205 -13t443.5 -8t440 7t207 15l37 7l107 -569h-17q-3 10 -8.5 26.5t-27.5 66t-50 94.5t-78 101.5t-108.5 99t-144.5 75t-183 40.5v-1427q0 -37 19.5 -66.5t47.5 -46t55.5 -27.5t46.5 -14l20 -4v-16q-140 31 -353 31h-13q-222 -1 -370 -31 v16q8 1 21 4t45.5 15t58 27.5t46 45.5t20.5 66v1427q-96 -8 -181 -40t-144 -77t-107.5 -97.5t-78 -103.5t-49.5 -92.5t-28 -66.5l-8 -26h-17z" />
<glyph unicode="U" horiz-adv-x="1849" d="M35 1622q8 -1 20.5 -4t45.5 -15t58 -27.5t45.5 -45.5t20.5 -66l1 -822q0 -138 50.5 -260.5t139.5 -214t220.5 -145t286.5 -53.5q152 0 271 50.5t194.5 141.5t114.5 213t39 268l3 710q0 44 14.5 82.5t37.5 65t51 48.5t56.5 35.5t51.5 22.5t38 12l14 4v16 q-128 -27 -268.5 -27t-217.5 13l-76 14v-16q11 -2 28.5 -7t63 -26.5t80 -49t63 -77.5t28.5 -110l-1 -727q0 -130 -34.5 -236.5t-88.5 -173t-124 -112t-136 -64t-129 -18.5q-94 0 -173.5 38t-130.5 101t-79.5 144t-28.5 169v991q0 36 19.5 65.5t47.5 46t56 27.5t47 15l20 4 v16q-159 -28 -370 -28h-14q-220 1 -355 28v-16z" />
<glyph unicode="V" horiz-adv-x="1753" d="M20 1622v16q108 -16 236 -24q87 -6 185 -5q45 0 93 1q148 4 238 28v-16q-3 0 -7.5 -1t-19 -4.5t-27 -7.5t-31.5 -11t-32 -15.5t-28 -20t-20.5 -25t-9 -31t6.5 -37.5l392 -1024l326 848q23 63 23 111.5t-19 83.5t-47 59.5t-60.5 39t-61 23t-47.5 10.5l-18 3v16 q128 -27 292 -29h15q158 0 335 29v-16q-64 -2 -126.5 -38t-106.5 -86.5t-78 -101t-51 -85.5l-17 -35l-359 -910h-1l-161 -404h-26l-590 1506q-14 35 -39.5 63.5t-52 44.5t-51 27t-39.5 14z" />
<glyph unicode="W" horiz-adv-x="2824" d="M20 1622v16q108 -16 236 -24q87 -6 185 -5q45 0 93 1q148 4 238 28v-16q-3 0 -7.5 -1t-19 -4.5t-27 -7.5t-31.5 -11t-32 -15.5t-28 -20t-20.5 -25t-9 -31t6.5 -37.5l392 -1024l317 823q9 24 9 55q0 57 -30 139l-2 7q-25 64 -94 110q-23 15 -49 26t-41 14l-14 3v1v16 l15 -3q181 -25 361.5 -25t360.5 25l15 3v-17q-3 0 -7.5 -1t-19 -4.5t-27 -7.5t-31.5 -11t-32 -15.5t-28 -20t-20.5 -25t-9 -31t6.5 -37.5l391 -1024l327 848q23 63 23 111.5t-19 83.5t-47 59.5t-61 39t-61 23t-47 10.5l-19 3v16q127 -27 291 -29h16q158 0 335 29v-16 q-64 -2 -126.5 -38t-106.5 -86.5t-78 -101t-51 -85.5l-17 -35l-358 -910h-1l-161 -404h-27l-518 1325q-5 -9 -6 -11l-359 -910h-1l-161 -404h-26l-590 1506q-14 35 -39.5 63.5t-52 44.5t-51 27t-39.5 14z" />
<glyph unicode="X" horiz-adv-x="1656" d="M20 16q49 0 132.5 40.5t180 121.5t156.5 176l222 353l-453 757q-41 71 -93.5 113.5t-96.5 44.5v16q134 -27 354 -28h14q210 0 369 28v-16q-2 0 -6 -1t-17 -4t-24 -7t-27.5 -10.5t-28 -14t-24.5 -17.5t-17.5 -21.5t-7.5 -26.5t6 -31l264 -442l166 264q29 46 46 85.5 t22.5 68.5t4 53t-9.5 39.5t-19 28t-23 19t-22 11t-17 5.5l-7 1v16q136 -18 266 -18t254 18l2 -16q-80 0 -230.5 -99t-238.5 -239l-172 -273l501 -837q41 -71 93.5 -113.5t96.5 -44.5v-16q-134 27 -354 28h-14q-210 0 -369 -28v16q2 0 6 1t17 4t24 7t27.5 10.5t28 14 t24.5 17.5t17.5 21.5t7.5 26.5t-6 31l-311 520l-216 -341q-36 -58 -54.5 -106.5t-18.5 -80t8 -55.5t24 -37t30 -21t25 -10l11 -2v-16q-136 18 -265.5 18t-254.5 -18z" />
<glyph unicode="Y" horiz-adv-x="1738" d="M20 1622v16q134 -27 354 -28h15q210 0 369 28v-16q-3 0 -7.5 -1t-18 -4.5t-26.5 -8t-29 -11.5t-29 -15t-24 -19.5t-16 -24t-3 -29t13 -33.5l354 -562l250 397q29 46 46 85.5t22.5 68.5t4 53t-9.5 39.5t-19 28t-23 19t-22 11t-17 5.5l-7 1v16q135 -18 265 -18t255 18 l2 -16q-49 0 -132.5 -40.5t-180 -121.5t-156.5 -176l-265 -421v-689q0 -37 19.5 -66.5t47.5 -46t56.5 -27.5t47.5 -14l20 -4v-14q-153 16 -365 16h-13q-221 -1 -360 -16v14q8 1 21 4t45.5 15t58 27.5t46 45.5t20.5 66v622l-418 668q-41 71 -93.5 113.5t-97.5 44.5z" />
<glyph unicode="Z" horiz-adv-x="1654" d="M20 0v16q45 2 97.5 44.5t93.5 113.5l365 605l492 814q-66 11 -152 11q-89 0 -178.5 -24.5t-160.5 -63t-136 -85.5t-112.5 -94.5t-83 -86t-53.5 -62.5l-17 -25h-19l158 417q330 58 602 58q42 -1 170 -14q101 -13 172 -13q197 0 337 28v-16q-4 0 -11.5 -2t-30 -12t-44 -25 t-50.5 -46.5t-54 -72.5l-98 -162l-689 -1140q-19 -31 -20 -55.5t9.5 -37.5t28.5 -21.5t32.5 -11t25.5 -2.5q108 0 203 18.5t164.5 50t128.5 72.5t98.5 86t71 90.5t49 86.5t29 72.5t14.5 50.5l4 18h20l-87 -580h-695h-674z" />
<glyph unicode="[" horiz-adv-x="735" d="M123 -187v1947h534v-21q-114 0 -177 -40t-66 -146v-1533q3 -106 66 -146.5t177 -40.5v-20h-534z" />
<glyph unicode="\" horiz-adv-x="604" d="M22 1518h76l485 -1518h-74z" />
<glyph unicode="]" horiz-adv-x="735" d="M121 -167v-20h532v1947h-532v-21q114 0 177.5 -40t66.5 -146v-1533q-3 -106 -66.5 -146.5t-177.5 -40.5z" />
<glyph unicode="^" horiz-adv-x="1056" d="M177 1159h60q58 37 165 80.5t130 56.5q23 -13 129.5 -56.5t164.5 -80.5h60l-281 318h-73h-1h-73z" />
<glyph unicode="_" horiz-adv-x="1421" d="M90 0h1237v-156h-1237v156z" />
<glyph unicode="`" horiz-adv-x="1056" d="M248.5 1377.5q6.5 32.5 26.5 59.5q33 45 91.5 49.5t104 -30t45.5 -90.5q0 -71 41 -121.5t130 -50.5l18 -35q-106 0 -158.5 3t-118.5 22t-119 58q-39 28 -53 65.5t-7.5 70z" />
<glyph unicode="a" horiz-adv-x="1052" d="M49 633v4q0 68 80 168q79 94 212 166.5t273 72.5q216 0 273 -163q14 -51 14 -88v-666q0 -46 47 -59q1 0 4 -1t4 -1q21 0 62 26l14 -10q-28 -37 -88 -69.5t-117 -32.5q-91 0 -144 39.5t-56 115.5q-49 -69 -146.5 -112t-189.5 -43q-95 0 -166.5 59t-71.5 147v7 q0 45 18.5 85.5t48 69.5t67.5 54.5t77 44.5t75 36l7.5 3t6.5 3t7 3q33 15 267 107v282q0 59 -16 89t-64 31q-89 0 -142 -40t-53 -121l2 -97q0 -98 -43 -161.5t-125 -63.5h-4q-54 0 -93.5 32.5t-39.5 82.5zM336 256q1 -31 3.5 -54.5t11 -49t22 -42t37 -27.5t55.5 -11 q40 0 88 33.5t74 82.5v373q-59 -19 -93 -32.5t-77 -38t-66 -52t-39 -70.5t-16 -98v-14z" />
<glyph unicode="b" horiz-adv-x="1263" d="M18 1501v12q16 3 67.5 11t65.5 10.5t54.5 10.5t56 12.5t48 13.5t52 18.5t46 22t51.5 28.5l14 -2l1 -749q42 80 121.5 119t207.5 39q127 0 219.5 -68.5t137 -178t44.5 -245.5q0 -156 -63 -287t-182.5 -211t-270.5 -80q-64 0 -115 13.5t-82 33t-56.5 39t-51.5 33t-53 13.5 q-31 0 -61 -29.5t-45 -56t-15 -31.5l-14 8l2 1270q0 93 -48.5 152.5t-130.5 78.5zM475 360q1 -60 5.5 -104.5t18 -90t35.5 -74.5t60 -47.5t90 -18.5q223 0 223 446q0 80 -15.5 159t-46.5 150t-85 116t-123 46q-35 0 -61.5 -10.5t-44 -32.5t-29 -48t-17 -62.5t-8 -69.5 t-2.5 -75v-48v-74v-65v-97z" />
<glyph unicode="c" horiz-adv-x="1089" d="M68 510q0 -228 151 -379t379 -151q71 0 134.5 19.5t107 50.5t80 68.5t58.5 75t37 68.5t21 50l6 20l-20 2q-32 -51 -70.5 -83.5t-80 -45.5t-70.5 -17t-66 -4q-178 0 -286 154q-90 128 -97 304v25q0 152 68 249q69 93 180 94q29 1 54.5 -11t48 -41.5t27.5 -79.5 q1 -13 1 -27q0 -41 -10 -97q-9 -36 -9 -68q0 -56 27 -99q42 -67 113 -67q25 0 47.5 7t44.5 23t34.5 48.5t12.5 77.5q0 61 -26 124.5t-73 118.5t-122.5 90t-165.5 35q-148 0 -271 -70t-193.5 -192.5t-71.5 -271.5z" />
<glyph unicode="d" horiz-adv-x="1214" d="M59 475q0 155 63.5 284t183 207t269.5 78q136 0 211 -96v322q0 102 -43 153q-47 60 -129 78l-2 12q100 16 183 31q49 9 120 33q88 29 140 63l14 -2v-1417q0 -42 31 -78q34 -34 61 -45q31 -12 31 -6q2 -4 2 -8t-2 -6l-2 -4q-10 1 -22 1q-63 0 -181 -26q-126 -28 -186 -57 l-15 8v136q-42 -80 -120.5 -118t-206.5 -38q-126 0 -218 68.5t-137 179t-45 247.5zM354 559q0 -80 16 -160.5t47.5 -152t85.5 -116.5t122 -46h5q40 0 69 16q31 17 48.5 49.5t26.5 70.5t12 88v418q-4 61 -14.5 106t-32.5 84t-62.5 59t-98.5 20q-110 0 -167 -110.5t-57 -325.5 z" />
<glyph unicode="e" horiz-adv-x="1112" d="M68 510q0 148 69.5 270.5t192 193t270.5 70.5q97 0 182.5 -43t141.5 -110t88 -146.5t32 -154.5h-274h-413q10 -79 38.5 -150.5t74.5 -130t114.5 -93t150.5 -34.5q28 0 50.5 2t56.5 10.5t62.5 24t60 45t57.5 70.5l20 -2q0 -3 -5.5 -21.5t-20.5 -51.5t-37 -69.5t-58 -74.5 t-80 -68.5t-107.5 -50t-135.5 -19.5q-227 0 -378.5 152t-151.5 381zM353 627h417q0 46 -1.5 80.5t-6 76.5t-11.5 72.5t-20 61t-30.5 49.5t-43 31t-57.5 12q-85 0 -144 -56q-60 -54 -84 -140q-20 -69 -20 -148q0 -19 1 -39z" />
<glyph unicode="f" horiz-adv-x="745" d="M41 0v16l31 9q31 6 61 30q31 25 31 56v778h-115v18q37 51 74.5 134t65 162t64 162.5t72 145.5t88.5 102t115 40q83 0 140 -71.5t57 -145.5q-1 -59 -35 -95t-82 -36q-131 0 -131 120q0 15 4 41t6.5 45.5t2 39t-10.5 30t-30 10.5q-24 0 -49 -28t-31 -88q0 -102 36.5 -269 t36.5 -223h197l-27 -94h-176v-768q10 -50 33 -66q27 -21 61 -30l31 -9v-16q-131 16 -261 16t-259 -16z" />
<glyph unicode="g" horiz-adv-x="1056" d="M49 -164q1 -41 38 -73t89.5 -49.5t120 -29t120 -15t97.5 -3.5q522 0 522 334q0 129 -90 184.5t-254 55.5h-370q-44 0 -44 22q0 27 67 87q28 26 66 54q53 -10 109 -10q72 0 145.5 19t139.5 55.5t107.5 99t41.5 140.5t-38.5 142.5t-99.5 104.5t-131 63t-140 27q4 14 8.5 27 t14 29.5t20.5 23.5t28 10.5t37 -10.5q5 -3 19.5 -13t19 -12.5t16.5 -9t19.5 -8.5t20.5 -5t27 -4t32 -1q53 0 90 44t37 104q0 67 -41.5 102t-95.5 35q-56 0 -104.5 -26.5t-78.5 -62t-54.5 -83.5t-35.5 -79t-18 -61q-71 -2 -143 -24t-134.5 -62.5t-101.5 -106t-39 -144.5 q0 -109 74 -182t188 -107q-84 -37 -141.5 -79.5t-83.5 -82t-36 -70.5t-9 -61q0 -92 96 -134q-127 -84 -127 -155zM172 -162q0 28 14 55t24.5 38.5t37.5 37.5q96 -20 266 -20q82 0 144 -10.5t96 -26t54.5 -35.5t26.5 -36t5 -31q0 -27 -26 -49t-102.5 -39t-197.5 -17 q-51 0 -105 6.5t-110 20t-91.5 41.5t-35.5 65zM399 709v18q0 285 121 285q38 0 63.5 -25.5t38 -72.5t17 -95t4.5 -110q0 -82 -11.5 -144t-40 -102.5t-71.5 -40.5q-63 0 -92 79.5t-29 207.5z" />
<glyph unicode="h" horiz-adv-x="1257" d="M20 1501v12q204 32 266 49q91 26 173 76l14 -2v-771q135 99 245 143q95 38 161 38q10 0 20 -1q71 -7 119.5 -49.5t69 -106.5t20.5 -144v-624q0 -44 31 -66q29 -20 61 -30l31 -9v-16h-259q-58 0 -107 1q-96 0 -154 -1v16l30 9q33 7 62 30q31 25 31 56v534q0 89 -15.5 148 t-39.5 86q-23 27 -57 34q-15 3 -30 3q-18 0 -36 -5q-32 -9 -69 -29.5t-63 -40.5t-51 -42v-678q0 -44 31 -66q27 -21 61 -30l31 -9q-2 -6 -2 -16q-138 16 -268 16t-250 -16v16l30 9q33 7 62 30q31 25 31 56v1159q0 93 -48.5 151.5t-130.5 79.5z" />
<glyph unicode="i" d="M20 887v12q103 16 138.5 22t100.5 21.5t108.5 34.5t91.5 49l14 -2v-903q-1 -37 27 -62t65 -34l31 -9v-16q-132 16 -262 16t-258 -16q0 10 -2 16l30 9q33 7 63.5 32t29.5 54l2 544q0 93 -48.5 152t-130.5 80zM184 1374q0 73 49 125.5t121 52.5q73 0 122.5 -52.5 t49.5 -125.5q0 -74 -49.5 -127t-122.5 -53t-121.5 52.5t-48.5 127.5z" />
<glyph unicode="j" horiz-adv-x="731" d="M20 -112q0 -74 57 -145.5t140 -71.5q63 0 116 26t88.5 69t62.5 94.5t42 107t22 102t7 84.5v870l-14 2q-39 -24 -80 -42t-70 -28.5t-89 -22.5t-86.5 -16.5t-113.5 -17.5v-12q83 -21 130.5 -79.5t48.5 -152.5l2 -472q0 -47 23.5 -104t47.5 -117.5t24 -117.5q-2 -14 -5 -26 t-6.5 -21t-9 -17t-10 -13.5t-10.5 -10.5t-10 -8t-9.5 -5t-8.5 -3t-6.5 -2l-3.5 -1q-20 0 -30.5 11t-11 31t1.5 39t6 42.5t4 35.5q0 65 -37 94t-95 29q-55 -3 -86 -37.5t-31 -93.5zM184 1374q0 73 49 125.5t121 52.5q73 0 122.5 -52.5t49.5 -125.5q0 -74 -49.5 -127 t-122.5 -53t-121.5 52.5t-48.5 127.5z" />
<glyph unicode="k" horiz-adv-x="1363" d="M61 1501v12q204 32 266 49q91 26 173 76l14 -2v-1146q205 164 253 212q45 45 67.5 86t23.5 71.5t-9 57t-28.5 44t-35.5 30t-30 17.5l-13 6v16q136 -18 266 -18t255 18l2 -16q-65 0 -202.5 -99.5t-266.5 -228.5l-1 -1l418 -564q6 -9 16.5 -23.5t37.5 -41t47 -31.5l31 -9 v-16q-139 18 -269 18t-252 -18v16l31 9q32 8 40 35t-15 59l-292 393l-74 -62v-329q0 -44 31 -66q27 -21 61 -30l31 -9q-2 -6 -2 -16q-138 16 -267.5 16t-250.5 -16v16l30 9q33 7 62 30q31 25 31 56v1159q0 93 -48.5 151.5t-130.5 79.5z" />
<glyph unicode="l" d="M20 1501v12q130 19 261 52q95 21 178 71h14v-1515q0 -44 31 -66q27 -21 61 -30l31 -9v-16q-126 16 -256 16t-264 -16q0 10 -2 16l30 9q35 6 62 30q31 22 31 56l2 1159q0 95 -49 153q-48 56 -130 78z" />
<glyph unicode="m" horiz-adv-x="1900" d="M27 887v12q203 32 266 49q90 26 172 76l14 -2v-157q115 84 212 128.5t165 49.5q12 1 23 1q55 0 97 -20q52 -24 81 -67t43 -104q116 87 214 134.5t167 53.5q17 1 33 1q49 0 89 -14q53 -18 84 -63t46.5 -100.5t15.5 -121.5v-622v-7q0 -37 31 -59q27 -21 61 -30l31 -9 q-2 -6 -2 -16q-124 15 -254 15t-264 -15v16l30 9q33 7 62 30q31 25 31 56v532q0 90 -15.5 150t-40 86.5t-58.5 32.5q-13 2 -25 2q-21 0 -42 -6q-33 -10 -70.5 -31.5t-63 -41.5t-50.5 -42q2 -32 2 -50l2 -622v-7q0 -37 31 -59q27 -21 61 -30l31 -9q-2 -6 -2 -16 q-124 15 -254.5 15t-265.5 -15v16l30 9q33 7 62 30q31 25 31 56v532q0 88 -15 147.5t-38.5 86.5t-56.5 34q-15 3 -30 3q-18 0 -36 -4q-32 -8 -68.5 -29t-62.5 -40.5t-52 -42.5v-677q-1 -37 27 -62t65 -34l31 -9v-16q-125 15 -254.5 15t-263.5 -15q0 10 -2 16l31 9 q32 7 62.5 31.5t29.5 54.5v544q0 93 -48 152t-130 80z" />
<glyph unicode="n" horiz-adv-x="1263" d="M27 887v12q203 32 266 49q90 26 172 76l14 -2v-153q113 83 209 127q94 45 162 50q14 1 27 1q51 1 93 -15q52 -20 82 -64.5t45 -99t15 -120.5l2 -627v-7q0 -37 31 -59q27 -21 61 -30l31 -9q-2 -6 -2 -16q-124 18 -254.5 18t-265.5 -18v16l30 9q33 7 62 30q31 25 31 56v536 q0 88 -15 147.5t-38.5 86.5t-56.5 34q-15 3 -30 3q-18 0 -36 -4q-32 -8 -68.5 -29t-62.5 -40.5t-52 -42.5v-681q-1 -37 27 -62t65 -34l31 -9v-16q-140 18 -270.5 18t-251.5 -18v16l31 9q32 7 62.5 31.5t29.5 54.5l2 544q0 93 -48 152t-130 80z" />
<glyph unicode="o" horiz-adv-x="1216" d="M59 514q0 225 160 379q160 151 387 151q229 0 389 -151q159 -153 162 -379q-3 -233 -162 -383q-157 -151 -389 -151q-230 0 -387 151q-160 151 -160 383zM391 489q0 -51 0.5 -81t2.5 -76t6 -74t11.5 -65t18 -59.5t27 -47t37.5 -38t49 -22t63 -8.5t63.5 8.5t49.5 22 t37.5 37.5t27.5 46.5t18.5 59.5t11.5 65t6 74t2.5 76.5t0.5 81.5v27v27q0 50 -0.5 80.5t-2.5 75.5t-6 73t-11.5 64.5t-18.5 59t-27.5 46.5t-37.5 37.5t-49.5 22t-63.5 8.5t-63 -8.5t-49 -22t-37.5 -38t-27 -47t-18 -59t-11.5 -64.5t-6 -73t-3 -75t0 -80v-27v-27z" />
<glyph unicode="p" horiz-adv-x="1226" d="M18 887v12q105 16 139.5 22t100.5 21t109.5 34t91.5 48l14 -2v-181q94 203 318 203q95 0 168.5 -40t118 -109.5t67 -157.5t22.5 -190q0 -150 -64 -280t-182.5 -210t-263.5 -80q-122 0 -184 73v-258q-1 -36 26.5 -60.5t65.5 -35.5l31 -9v-16q-126 15 -256.5 15t-265.5 -15 q0 10 -2 16l30 9q33 7 64.5 32t30.5 54v873q0 93 -48.5 152t-130.5 80zM473 240q8 -108 47 -166t133 -58q45 0 81.5 33.5t58.5 83.5t37 112.5t20.5 116t5.5 97.5q0 118 -19.5 206t-47 134t-66 74t-67 35t-58.5 7q-102 0 -125 -183v-234v-258z" />
<glyph unicode="q" horiz-adv-x="1210" d="M59 475q0 155 63.5 284t183 207t269.5 78q64 0 115.5 -13.5t82.5 -33t56.5 -38.5t51.5 -32.5t53 -13.5q31 0 61 29.5t45 56t15 31.5l14 -8v-1230q0 -37 26.5 -61.5t63.5 -34.5l31 -9q0 -3 -1 -8.5t-1 -7.5q-124 15 -254 15t-266 -15v16l30 9q30 7 60.5 34.5t29.5 55.5 v354q-41 -81 -120 -120.5t-209 -39.5q-126 0 -218 68.5t-137 179t-45 247.5zM354 559q0 -80 16 -160.5t47.5 -152t85.5 -116.5t122 -46h4q46 0 77 20q33 20 49.5 60.5t23.5 84t9 102.5v157v169q-1 57 -6 99.5t-18.5 86t-36 71t-60 44.5t-89.5 17q-110 0 -167 -110.5 t-57 -325.5z" />
<glyph unicode="r" horiz-adv-x="956" d="M49 887v12q155 22 260 49q97 25 178 76l15 -2v-265q8 15 31 59.5t36 67t39 58.5t49 54.5t57 33t72 14.5q70 0 110 -48t40 -122q0 -68 -38.5 -116.5t-96.5 -48.5q-108 0 -160 118q-6 21 -23 21q-14 0 -29.5 -14.5t-32 -44.5t-27.5 -52.5t-27 -59.5v-556q0 -45 30 -66 q27 -21 62 -30l31 -9v-16q-130 17 -255 17t-264 -17q0 10 -2 16l31 9q35 6 62 30q30 21 30 56v544q0 94 -49 152q-50 59 -129 80z" />
<glyph unicode="s" horiz-adv-x="892" d="M82 713q0 56 29.5 115t79 107t122 78.5t152.5 30.5q53 0 99 -9t74 -22t48.5 -26t28.5 -22l8 -9l31 -292h-17q-93 173 -180.5 255t-157.5 82q-31 0 -54 -11t-34.5 -26.5t-18 -31.5t-8.5 -27l-1 -11q0 -45 30.5 -80.5t80 -61.5t109 -52t118.5 -59.5t108.5 -75t80 -107.5 t30.5 -149q0 -132 -112 -230.5t-263 -98.5q-82 0 -169 23.5t-133 46.5l-46 24l6 368h16q20 -91 81 -190t141 -167.5t147 -68.5q34 0 59.5 13t37 31t18 36.5t7.5 31.5l1 13q0 50 -24 91.5t-62.5 70t-87.5 56.5t-100.5 50.5t-101 53t-88 63t-62 81t-23.5 106.5z" />
<glyph unicode="t" horiz-adv-x="759" d="M49 946v19q8 6 23 17.5t59.5 51t87.5 83t99 112t102 139.5h20q2 -234 2 -328h228l-27 -94h-209l2 -651q8 -234 142 -234q38 0 74.5 16.5t54.5 32t16 17.5l16 -12q-4 -5 -11 -14.5t-32.5 -32.5t-56 -41t-81.5 -32.5t-107 -14.5t-102 13.5t-75.5 34.5t-51.5 51t-33 57 t-17.5 59t-8 51.5t-1.5 38.5v661h-113z" />
<glyph unicode="u" horiz-adv-x="1271" d="M27 889v12q137 20 260 51q92 20 178 72h16v-644q0 -87 15 -146t38 -86q23 -26 56 -34q16 -4 32 -4q17 0 33 4q32 8 68.5 28t62.5 39t52 41v435q0 95 -50 154q-49 58 -126 78v12q137 20 260 51q92 20 178 72h16v-801q0 -40 35 -80q34 -34 61 -45q31 -12 31 -6q2 -4 2 -8 t-2 -6l-2 -4q-10 1 -22 1q-63 0 -181 -26q-126 -28 -186 -57l-14 8v156q-134 -96 -243 -140q-94 -37 -159 -38q-10 0 -20 1q-70 7 -119 49.5t-69.5 106.5t-20.5 144l-2 378q0 96 -49 154q-48 57 -129 78z" />
<glyph unicode="v" horiz-adv-x="1286" d="M20 1008l31 -11q27 -6 53 -29t39 -55l394 -933h16l334 673q4 7 10.5 20t28.5 49.5t45.5 70t59 74.5t71 70.5t79 50t85.5 20.5q-2 10 -2 16q-125 -18 -255.5 -18t-265.5 18v-16q5 -1 13.5 -2.5t31.5 -10.5t42 -22t36.5 -39.5t23.5 -60.5q2 -13 2 -28q0 -26 -6 -59 q-10 -53 -40 -116l-149 -318l-212 553q-16 39 -11 62t36 30l31 11v16q-126 -17 -256.5 -17t-264.5 17v-16zM538 -20h15h-15z" />
<glyph unicode="w" horiz-adv-x="2021" d="M20 1008v16q134 -17 264.5 -17t256.5 17v-16l-31 -11q-31 -7 -36 -30t11 -62l212 -553l149 318q22 50 34 94q11 42 12 72q0 32 -8 60q-7 26 -21 43t-29 30.5t-31.5 20.5t-29.5 11.5t-21 5.5l-9 1v16q139 -17 266 -17t255 17l2 -16l-31 -11q-31 -7 -37 -29q-1 -6 0 -13 q0 -20 12 -50l223 -553l149 318q23 50 34.5 93.5t11.5 75t-7.5 57.5t-21 43t-29 30.5t-31.5 20.5t-29 11.5t-22 5.5l-8 1v16q136 -18 266 -18t254 18l2 -16q-57 -1 -117.5 -37.5t-105 -88.5t-81.5 -104t-56 -88l-19 -37l-334 -673l-16 -1q-62 148 -177 418.5t-151 355.5 q-16 -25 -30.5 -50t-20.5 -37l-7 -13l-334 -673h-16l-394 933q-13 32 -39 55t-53 29z" />
<glyph unicode="x" horiz-adv-x="1247" d="M20 0v16q57 1 122 33t117.5 77.5t96.5 91t68 76.5l25 32l82 104l-365 492q-21 27 -31 39.5t-27.5 26.5t-33.5 18l-31 10v16q134 -17 264.5 -17t255.5 17v-16l-31 -10q-34 -8 -42 -31q-2 -5 -2 -12q0 -20 20 -50l195 -262l40 51q35 51 51 96q13 39 14 67v9 q-2 31 -14.5 56.5t-31.5 40.5t-36 25t-30 14l-12 4v16q136 -18 266 -18t254 18l2 -16q-53 0 -115 -32t-112.5 -78t-93 -92t-66.5 -78l-24 -32l-67 -85l368 -496q6 -9 16.5 -23.5t37 -41t46.5 -31.5l31 -9v-16q-136 15 -265.5 15t-254.5 -15v16l30 9q31 8 39.5 35t-14.5 59 l-206 277l-54 -70q-40 -58 -58 -106q-18 -46 -17 -76q0 -32 11 -58q10 -24 28 -36.5t34.5 -21t28.5 -10.5l12 -2v-16q-136 15 -266 15t-255 -15z" />
<glyph unicode="y" horiz-adv-x="1286" d="M20 1008l31 -11q27 -6 53 -29t39 -55l385 -911q-47 -118 -95 -118q-53 0 -68 55q-1 3 -2.5 8.5t-9.5 19t-19.5 24t-34 19t-51.5 8.5q-51 0 -92 -32.5t-41 -98.5q0 -82 50 -126t114 -44q48 0 93 26t74.5 60.5t55 76t36.5 65t15 34.5v1l36 72q1 0 1 1v2l297 598 q4 7 10.5 20t28.5 49.5t45.5 70t59 74.5t71 70.5t79 50t85.5 20.5q-2 10 -2 16q-125 -18 -255.5 -18t-265.5 18v-16q5 -1 13.5 -2.5t31.5 -10.5t42 -22t36.5 -39.5t23.5 -60.5q2 -13 2 -28q0 -26 -6 -59q-10 -53 -40 -116l-149 -318l-212 553q-16 39 -11 62t36 30l31 11v16 q-126 -17 -256.5 -17t-264.5 17v-16z" />
<glyph unicode="z" horiz-adv-x="1257" d="M33 0v16l30 11q10 2 27.5 19.5t42 49t40.5 53t41 57.5l25 36l526 743q-95 -1 -179 -26.5t-141.5 -65t-105 -87.5t-75.5 -95.5t-47.5 -86.5t-26.5 -64l-8 -24h-15l89 488h537l382 1l1 -15l-31 -9q-20 -5 -45.5 -29t-40.5 -46l-15 -21l-600 -862h4q84 0 160.5 17t134 46 t107.5 66t85.5 78.5t64 83t46.5 78.5t30 66t16 46l5 17h19l-94 -541h-608h-46h-335z" />
<glyph unicode="{" horiz-adv-x="395" d="M54 34.5q4 79.5 25 138.5t47 122t49 114t31 114.5t-7 122.5q-11 43 -35 64.5t-86 21.5v19q62 0 86 21.5t35 64.5q15 60 7 122.5t-31 114.5t-49 114t-47 122t-25 138.5t17 162.5q33 131 104 178.5t152 -18.5l-6 -23q-83 73 -126 -91q-16 -63 -9 -129t28.5 -120.5 t47 -117.5t46.5 -119.5t27 -127t-12 -139.5q-35 -139 -123 -163q88 -24 123 -163q18 -69 12 -139.5t-27 -127t-46.5 -119.5t-47 -117t-28.5 -120.5t9 -128.5q9 -34 20 -58t26.5 -40.5t36 -15.5t43.5 22l6 -22q-81 -66 -152 -18.5t-104 178.5q-21 83 -17 162.5z" />
<glyph unicode="|" horiz-adv-x="172" d="M61 1765l1 -2007l56 1l1 2005z" />
<glyph unicode="}" horiz-adv-x="395" d="M63 438.5q6 -70.5 27 -127t46.5 -119.5t47 -117t28.5 -120.5t-9 -128.5q-9 -34 -20 -58t-26.5 -40.5t-36 -15.5t-43.5 22l-6 -22q81 -66 152 -18.5t104 178.5q21 83 17 162.5t-25 138.5t-47 122t-49 114t-31 114.5t7 122.5q11 43 35 64.5t86 21.5v19q-62 0 -86 21.5 t-35 64.5q-15 60 -7 122.5t31 114.5t49 114t47 122t25 138.5t-17 162.5q-33 131 -104 178.5t-152 -18.5l6 -23q83 73 126 -91q16 -63 9 -129t-28.5 -120.5t-47 -117.5t-46.5 -119.5t-27 -127t12 -139.5q35 -139 123 -163q-88 -24 -123 -163q-18 -69 -12 -139.5z" />
<glyph unicode="~" horiz-adv-x="1255" d="M248 1225.5q-30 -77.5 6 -154.5l11 9q-39 80 52 124q31 15 63 10t59 -23.5t57.5 -42.5t59.5 -48t64.5 -39.5t72.5 -17t84 19.5q78 37 106.5 114t-11.5 167l-13 -6q43 -91 -54 -138q-37 -17 -76.5 -9.5t-72 31t-69.5 51.5t-71 51t-76 29t-83 -13q-79 -37 -109 -114.5z" />
<glyph horiz-adv-x="436" d="M59.5 1541.5q-14.5 53.5 11 104.5t78.5 64q50 13 99 -12t65 -91q9 -38 10 -77t-3 -69t-19 -77t-25.5 -74.5t-35.5 -88.5l-25 29q25 57 14 101.5t-38 72t-67 43.5q-50 21 -64.5 74.5z" />
<glyph unicode="&#xa1;" horiz-adv-x="577" d="M119 174q0 -51 15 -95t55 -77t100 -33t100 33t55 77t15 95q0 146 -40 412t-75.5 459.5t-30.5 199.5h-43q-17 -82 -42 -213.5t-67 -420t-42 -437.5zM119 1489q0 -73 48 -125.5t120 -52.5q73 0 122.5 52.5t49.5 125.5q0 74 -49.5 127t-122.5 53q-72 0 -120 -52.5 t-48 -127.5z" />
<glyph unicode="&#xa8;" horiz-adv-x="1112" d="M296 1314q0 48 30.5 82.5t76.5 31.5q47 0 78.5 -33.5t31.5 -80.5q0 -48 -31.5 -81.5t-78.5 -33.5q-46 0 -76.5 33.5t-30.5 81.5zM637 1314q0 47 31 82t77 32q47 0 78.5 -33.5t31.5 -80.5q0 -48 -31.5 -81.5t-78.5 -33.5t-77.5 33.5t-30.5 81.5z" />
<glyph unicode="&#xab;" horiz-adv-x="980" d="M123 486l361 355v-59q-37 -58 -80.5 -165t-56.5 -130q13 -23 56.5 -130t80.5 -165v-59zM497 486l361 355v-59q-37 -58 -80.5 -165t-56.5 -130q13 -23 56.5 -130t80.5 -165v-59z" />
<glyph unicode="&#xad;" horiz-adv-x="712" d="M86 350v156h557v-156h-557z" />
<glyph unicode="&#xb4;" horiz-adv-x="1056" d="M275 1159q106 0 158.5 3t118.5 22t119 58q39 28 53 65.5t7.5 70t-26.5 59.5q-33 45 -91 49.5t-103.5 -30t-45.5 -90.5q0 -71 -41.5 -121.5t-130.5 -50.5z" />
<glyph unicode="&#xb8;" horiz-adv-x="1089" d="M394.5 -248q3.5 -47 40.5 -74q22 -16 51.5 -21t62.5 6.5t55 41.5q27 36 39.5 87t14.5 89.5t2 119.5v25l-28 -14q0 -72 -41 -105.5t-98 -33.5q-45 0 -73.5 -37t-25 -84z" />
<glyph unicode="&#xbb;" horiz-adv-x="980" d="M123 133l361 353l-361 355v-59q37 -58 80.5 -165t56.5 -130q-13 -23 -56.5 -130t-80.5 -165v-59zM497 133l361 353l-361 355v-59q37 -58 80.5 -165t56.5 -130q-13 -23 -56.5 -130t-80.5 -165v-59z" />
<glyph unicode="&#xc0;" horiz-adv-x="1710" d="M20 0l1 17q64 2 126.5 38.5t106 87.5t78 102t50.5 87l17 35l316 786q-41 72 -97 72l-6 11q22 16 40 32t29.5 27.5t25.5 30.5t20.5 29t23 36t24.5 39q19 30 47.5 90t47.5 105l19 45l13 5l590 -1489q14 -35 39.5 -65.5t52 -49t51.5 -31.5t41 -18l15 -6v-16 q-145 19 -375 18.5t-377 -18.5v16q5 1 12 2.5t30 7t40 13t41 20t33.5 28t18 36.5t-6.5 46l-131 335h-484l-60 -154q-32 -88 -20.5 -148.5t52 -97t85 -56.5t79.5 -26l35 -6v-16q-147 16 -319.5 16.5t-323.5 -16.5zM505 537h458l-221 563l-9 18zM630 2017.5q7 32.5 27 59.5 q33 45 91 49.5t103.5 -30.5t45.5 -91q0 -71 41.5 -121.5t130.5 -50.5l18 -35q-106 0 -158.5 3t-119 22t-119.5 58q-39 28 -53 66t-7 70.5z" />
<glyph unicode="&#xc1;" horiz-adv-x="1710" d="M20 0l1 17q64 2 126.5 38.5t106 87.5t78 102t50.5 87l17 35l316 786q-41 72 -97 72l-6 11q22 16 40 32t29.5 27.5t25.5 30.5t20.5 29t23 36t24.5 39q19 30 47.5 90t47.5 105l19 45l13 5l590 -1489q14 -35 39.5 -65.5t52 -49t51.5 -31.5t41 -18l15 -6v-16 q-145 19 -375 18.5t-377 -18.5v16q5 1 12 2.5t30 7t40 13t41 20t33.5 28t18 36.5t-6.5 46l-131 335h-484l-60 -154q-32 -88 -20.5 -148.5t52 -97t85 -56.5t79.5 -26l35 -6v-16q-147 16 -319.5 16.5t-323.5 -16.5zM505 537h458l-221 563l-9 18zM661 1798q106 0 158.5 3 t118.5 22t119 58q39 28 53 66t7 70.5t-27 59.5q-33 45 -91 49.5t-103.5 -30.5t-45.5 -91q0 -71 -41 -121.5t-130 -50.5z" />
<glyph unicode="&#xc2;" horiz-adv-x="1710" d="M20 0l1 17q64 2 126.5 38.5t106 87.5t78 102t50.5 87l17 35l316 786q-41 72 -97 72l-6 11q22 16 40 32t29.5 27.5t25.5 30.5t20.5 29t23 36t24.5 39q19 30 47.5 90t47.5 105l19 45l13 5l590 -1489q14 -35 39.5 -65.5t52 -49t51.5 -31.5t41 -18l15 -6v-16 q-145 19 -375 18.5t-377 -18.5v16q5 1 12 2.5t30 7t40 13t41 20t33.5 28t18 36.5t-6.5 46l-131 335h-484l-60 -154q-32 -88 -20.5 -148.5t52 -97t85 -56.5t79.5 -26l35 -6v-16q-147 16 -319.5 16.5t-323.5 -16.5zM505 537h458l-221 563l-9 18zM548 1798h59q58 37 165 80.5 t130 56.5q23 -13 130 -56.5t165 -80.5h59l-280 318h-74h-73z" />
<glyph unicode="&#xc3;" horiz-adv-x="1710" d="M20 0l1 17q64 2 126.5 38.5t106 87.5t78 102t50.5 87l17 35l316 786q-41 72 -97 72l-6 11q22 16 40 32t29.5 27.5t25.5 30.5t20.5 29t23 36t24.5 39q19 30 47.5 90t47.5 105l19 45l13 5l590 -1489q14 -35 39.5 -65.5t52 -49t51.5 -31.5t41 -18l15 -6v-16 q-145 19 -375 18.5t-377 -18.5v16q5 1 12 2.5t30 7t40 13t41 20t33.5 28t18 36.5t-6.5 46l-131 335h-484l-60 -154q-32 -88 -20.5 -148.5t52 -97t85 -56.5t79.5 -26l35 -6v-16q-147 16 -319.5 16.5t-323.5 -16.5zM505 537h458l-221 563l-9 18zM585 1980.5 q-30 -77.5 6 -154.5l11 8q-39 81 52 125q31 15 63 10t59 -23.5t57.5 -42.5t59.5 -48t64.5 -39.5t72.5 -17t84 19.5q78 37 106.5 113.5t-11.5 166.5l-13 -6q43 -91 -54 -138q-37 -17 -76.5 -9.5t-72 31.5t-69.5 51.5t-71 51t-76 29.5t-83 -13q-79 -37 -109 -114.5z" />
<glyph unicode="&#xc4;" horiz-adv-x="1710" d="M20 0l1 17q64 2 126.5 38.5t106 87.5t78 102t50.5 87l17 35l316 786q-41 72 -97 72l-6 11q22 16 40 32t29.5 27.5t25.5 30.5t20.5 29t23 36t24.5 39q19 30 47.5 90t47.5 105l19 45l13 5l590 -1489q14 -35 39.5 -65.5t52 -49t51.5 -31.5t41 -18l15 -6v-16 q-145 19 -375 18.5t-377 -18.5v16q5 1 12 2.5t30 7t40 13t41 20t33.5 28t18 36.5t-6.5 46l-131 335h-484l-60 -154q-32 -88 -20.5 -148.5t52 -97t85 -56.5t79.5 -26l35 -6v-16q-147 16 -319.5 16.5t-323.5 -16.5zM505 537h458l-221 563l-9 18zM623 1913q0 48 30.5 82.5 t76.5 31.5q47 0 78.5 -33.5t31.5 -80.5q0 -48 -31.5 -81.5t-78.5 -33.5q-46 0 -76.5 33.5t-30.5 81.5zM964 1913q0 47 31 82t77 32q47 0 78.5 -33.5t31.5 -80.5q0 -48 -31.5 -81.5t-78.5 -33.5t-77.5 33.5t-30.5 81.5z" />
<glyph unicode="&#xc6;" horiz-adv-x="2629" d="M20 0q151 17 323 16.5t319 -16.5v16q-7 1 -18 3t-42 12t-57 23.5t-54 40.5t-42 60t-12.5 84t25.5 111l93 154h699l-1 -330q0 -36 -19.5 -65.5t-47.5 -46t-55.5 -27.5t-46.5 -15l-20 -4v-16h722h695l87 580h-19q-2 -11 -6 -31t-25 -76.5t-52 -108t-91 -114.5t-136 -108 t-194 -76t-259 -31q-176 0 -175 139l1 625h61q9 0 24 -1t59 -8.5t84 -20.5t89 -42t84 -67.5t59 -102t24 -141.5h20v798h-20q0 -78 -23.5 -141.5t-60.5 -102.5t-82.5 -67.5t-90.5 -41.5t-82 -20.5t-61 -8.5l-23 -1h-61l1 758q47 14 169 14q89 0 175 -24.5t152 -63 t124.5 -85.5t99.5 -94t71 -85.5t44 -62.5l15 -25h19l-158 417q-30 6 -82.5 16t-195.5 26t-264 16q-46 -1 -169 -14h-2q-121 -13 -186 -13q-218 0 -358 28v-16q57 -9 108 -37l-746 -1219q-4 -7 -11 -19.5t-30 -48.5t-48 -68.5t-63 -72.5t-76 -69.5t-86 -50t-95 -21.5v-17z M574 537l624 1035q60 -42 60 -107l-4 -928h-680z" />
<glyph unicode="&#xc7;" horiz-adv-x="1589" d="M57 831q1 -155 50 -294t130.5 -240.5t185.5 -177t216.5 -113t220.5 -37.5q88 0 174 25.5t139 55.5t106 55.5t83 25.5q26 0 45 -34.5t25 -69.5l7 -35h17v610h-17q-2 -12 -7 -34t-25.5 -84t-47 -118.5t-74.5 -125.5t-105 -118.5t-141 -83.5t-181 -34q-67 0 -123 17.5 t-96.5 42.5t-72 72t-52 87t-34.5 108t-21 113.5t-10.5 126t-4 122.5t-0.5 124v9v7.5v8.5q0 85 1 134.5t9 143.5t22.5 153.5t45 135t73.5 119.5t111 75t154 31q78 0 151 -27t129.5 -71t106 -101.5t84 -118.5t59.5 -120.5t37 -109.5t12 -85h17v644h-17q0 -5 -0.5 -13t-5 -28 t-13 -35.5t-26.5 -28t-42 -12.5q-21 0 -69.5 22t-102.5 48.5t-142 48.5t-178 22q-37 0 -94 -12.5t-133 -42.5t-154 -73.5t-154 -112t-135 -151.5t-96 -199t-37 -247zM628.5 -288q3.5 -47 40.5 -74q22 -16 51.5 -21t62.5 6.5t55 41.5q27 37 40 88.5t15 91.5t2 122v19l-29 -15 q0 -72 -41 -105.5t-98 -33.5q-45 0 -73.5 -36.5t-25 -83.5z" />
<glyph unicode="&#xc8;" horiz-adv-x="1617" d="M52 1623q8 -1 20.5 -4t45.5 -15t58 -27.5t45 -45.5t20 -66l1 -1291q0 -36 -19.5 -65.5t-47.5 -46t-55.5 -27.5t-47.5 -15l-19 -4v-16h722h695l87 580h-19q-2 -11 -6 -31t-25 -76.5t-52 -108t-91 -114.5t-136 -108t-194 -76t-259 -31q-176 0 -175 139v625h62q9 0 24 -1 t59 -8.5t84 -20.5t89 -42t84 -67.5t59 -102t24 -141.5h20v798h-20q0 -78 -23.5 -141.5t-60.5 -102.5t-82 -67.5t-90.5 -41.5t-82.5 -20.5t-60 -8.5l-24 -1h-62v759q61 13 167 13q89 0 175 -24.5t152 -63t124.5 -85.5t99.5 -94t71 -85.5t45 -62.5l14 -25h19l-158 417 q-30 6 -82.5 16t-195.5 26t-264 16q-44 -1 -171 -14q-119 -13 -186 -13q-218 0 -358 28v-16zM529.5 2010.5q6.5 32.5 26.5 59.5q33 45 91.5 49.5t104 -30t45.5 -90.5q0 -71 41 -121.5t130 -50.5l18 -35q-106 0 -158.5 3t-118.5 22t-119 58q-39 28 -53 65.5t-7.5 70z" />
<glyph unicode="&#xc9;" horiz-adv-x="1617" d="M52 1623q8 -1 20.5 -4t45.5 -15t58 -27.5t45 -45.5t20 -66l1 -1291q0 -36 -19.5 -65.5t-47.5 -46t-55.5 -27.5t-47.5 -15l-19 -4v-16h722h695l87 580h-19q-2 -11 -6 -31t-25 -76.5t-52 -108t-91 -114.5t-136 -108t-194 -76t-259 -31q-176 0 -175 139v625h62q9 0 24 -1 t59 -8.5t84 -20.5t89 -42t84 -67.5t59 -102t24 -141.5h20v798h-20q0 -78 -23.5 -141.5t-60.5 -102.5t-82 -67.5t-90.5 -41.5t-82.5 -20.5t-60 -8.5l-24 -1h-62v759q61 13 167 13q89 0 175 -24.5t152 -63t124.5 -85.5t99.5 -94t71 -85.5t45 -62.5l14 -25h19l-158 417 q-30 6 -82.5 16t-195.5 26t-264 16q-44 -1 -171 -14q-119 -13 -186 -13q-218 0 -358 28v-16zM544 1792q106 0 158.5 3t118.5 22t119 58q39 28 53 65.5t7.5 70t-26.5 59.5q-33 45 -91.5 49.5t-104 -30t-45.5 -90.5q0 -71 -41 -121.5t-130 -50.5z" />
<glyph unicode="&#xca;" horiz-adv-x="1617" d="M52 1623q8 -1 20.5 -4t45.5 -15t58 -27.5t45 -45.5t20 -66l1 -1291q0 -36 -19.5 -65.5t-47.5 -46t-55.5 -27.5t-47.5 -15l-19 -4v-16h722h695l87 580h-19q-2 -11 -6 -31t-25 -76.5t-52 -108t-91 -114.5t-136 -108t-194 -76t-259 -31q-176 0 -175 139v625h62q9 0 24 -1 t59 -8.5t84 -20.5t89 -42t84 -67.5t59 -102t24 -141.5h20v798h-20q0 -78 -23.5 -141.5t-60.5 -102.5t-82 -67.5t-90.5 -41.5t-82.5 -20.5t-60 -8.5l-24 -1h-62v759q61 13 167 13q89 0 175 -24.5t152 -63t124.5 -85.5t99.5 -94t71 -85.5t45 -62.5l14 -25h19l-158 417 q-30 6 -82.5 16t-195.5 26t-264 16q-44 -1 -171 -14q-119 -13 -186 -13q-218 0 -358 28v-16zM398 1792h60q58 37 165 80.5t130 56.5q23 -13 129.5 -56.5t164.5 -80.5h60l-281 317h-73h-74z" />
<glyph unicode="&#xcb;" horiz-adv-x="1617" d="M52 1623q8 -1 20.5 -4t45.5 -15t58 -27.5t45 -45.5t20 -66l1 -1291q0 -36 -19.5 -65.5t-47.5 -46t-55.5 -27.5t-47.5 -15l-19 -4v-16h722h695l87 580h-19q-2 -11 -6 -31t-25 -76.5t-52 -108t-91 -114.5t-136 -108t-194 -76t-259 -31q-176 0 -175 139v625h62q9 0 24 -1 t59 -8.5t84 -20.5t89 -42t84 -67.5t59 -102t24 -141.5h20v798h-20q0 -78 -23.5 -141.5t-60.5 -102.5t-82 -67.5t-90.5 -41.5t-82.5 -20.5t-60 -8.5l-24 -1h-62v759q61 13 167 13q89 0 175 -24.5t152 -63t124.5 -85.5t99.5 -94t71 -85.5t45 -62.5l14 -25h19l-158 417 q-30 6 -82.5 16t-195.5 26t-264 16q-44 -1 -171 -14q-119 -13 -186 -13q-218 0 -358 28v-16zM455 1911q0 48 30.5 82.5t76.5 31.5q47 0 78.5 -33.5t31.5 -80.5q0 -48 -31.5 -81.5t-78.5 -33.5q-46 0 -76.5 33.5t-30.5 81.5zM796 1911q0 47 31 82t77 32q47 0 78.5 -33.5 t31.5 -80.5q0 -48 -31.5 -81.5t-78.5 -33.5t-77.5 33.5t-30.5 81.5z" />
<glyph unicode="&#xcc;" horiz-adv-x="843" d="M53 0v16q8 1 21 4t45.5 15t58 27.5t46 45.5t20.5 66v1290q0 36 -19.5 65.5t-48 46t-56.5 27.5t-48 15l-19 4v16q150 -30 370 -31.5t368 31.5v-16q-8 -1 -21 -4t-45.5 -15t-58 -27.5t-46 -45.5t-20.5 -66v-1290q0 -37 19.5 -66.5t48 -46t56.5 -27.5t48 -14l19 -4v-16 q-147 32 -369 31t-369 -31zM186.5 2010.5q6.5 32.5 26.5 59.5q33 45 91.5 49.5t104 -30t45.5 -90.5q0 -71 41 -121.5t130 -50.5l18 -35q-106 0 -158.5 3t-118.5 22t-119 58q-39 28 -53 65.5t-7.5 70z" />
<glyph unicode="&#xcd;" horiz-adv-x="843" d="M53 0v16q8 1 21 4t45.5 15t58 27.5t46 45.5t20.5 66v1290q0 36 -19.5 65.5t-48 46t-56.5 27.5t-48 15l-19 4v16q150 -30 370 -31.5t368 31.5v-16q-8 -1 -21 -4t-45.5 -15t-58 -27.5t-46 -45.5t-20.5 -66v-1290q0 -37 19.5 -66.5t48 -46t56.5 -27.5t48 -14l19 -4v-16 q-147 32 -369 31t-369 -31zM217 1792q106 0 158.5 3t118.5 22t119 58q39 28 53 65.5t7.5 70t-26.5 59.5q-33 45 -91.5 49.5t-104 -30t-45.5 -90.5q0 -71 -41 -121.5t-130 -50.5z" />
<glyph unicode="&#xce;" horiz-adv-x="843" d="M53 0v16q8 1 21 4t45.5 15t58 27.5t46 45.5t20.5 66v1290q0 36 -19.5 65.5t-48 46t-56.5 27.5t-48 15l-19 4v16q150 -30 370 -31.5t368 31.5v-16q-8 -1 -21 -4t-45.5 -15t-58 -27.5t-46 -45.5t-20.5 -66v-1290q0 -37 19.5 -66.5t48 -46t56.5 -27.5t48 -14l19 -4v-16 q-147 32 -369 31t-369 -31zM68 1792h59q58 37 165 80.5t130 56.5q23 -13 130 -56.5t165 -80.5h59l-281 317h-73h-74z" />
<glyph unicode="&#xcf;" horiz-adv-x="843" d="M53 0v16q8 1 21 4t45.5 15t58 27.5t46 45.5t20.5 66v1290q0 36 -19.5 65.5t-48 46t-56.5 27.5t-48 15l-19 4v16q150 -30 370 -31.5t368 31.5v-16q-8 -1 -21 -4t-45.5 -15t-58 -27.5t-46 -45.5t-20.5 -66v-1290q0 -37 19.5 -66.5t48 -46t56.5 -27.5t48 -14l19 -4v-16 q-147 32 -369 31t-369 -31zM142 1907q0 47 31 82t77 32q47 0 78.5 -33.5t31.5 -80.5q0 -48 -31.5 -81.5t-78.5 -33.5t-77.5 33.5t-30.5 81.5zM484 1907q0 48 30.5 82.5t76.5 31.5q47 0 79 -33.5t32 -80.5q0 -48 -32 -81.5t-79 -33.5q-46 0 -76.5 33.5t-30.5 81.5z" />
<glyph unicode="&#xd1;" horiz-adv-x="1894" d="M20 1638l1 -19q41 0 81.5 -12t69 -28.5t51.5 -33.5t35 -29l11 -11l66 -76l1 -1143q0 -44 -14.5 -82.5t-38 -65t-51.5 -48.5t-56 -35.5t-51.5 -22.5t-38.5 -12l-14 -4v-16q0 -6 78 6t203.5 20t281.5 -26v16q-11 2 -28.5 7t-63 26.5t-80 49t-63 77.5t-28.5 110 q0 183 -0.5 550.5t-0.5 550.5l1223 -1407h18l-1 267l1 1105q0 44 14.5 82.5t37.5 65t51.5 48.5t56.5 35.5t51 22.5t37 12l15 4v16q-128 -27 -269 -27t-218 13l-76 14v-16q11 -2 28.5 -7t63 -26.5t80 -49t63 -77.5t28.5 -110v-782l-912 1068q-263 -54 -643 0zM635 1973.5 q-30 -77.5 6 -154.5l11 9q-39 81 51 124q36 17 73 8t68 -34t68 -54t73 -51.5t82.5 -27t96.5 18.5q78 37 106.5 113.5t-11.5 166.5l-13 -6q43 -91 -54 -138q-37 -17 -76.5 -9.5t-72 31t-69.5 51.5t-71 51t-76 29t-83 -13q-79 -37 -109 -114.5z" />
<glyph unicode="&#xd2;" horiz-adv-x="1630" d="M57 807q0 175 51 323t131.5 245t183 165.5t203 98.5t193.5 30q65 0 135.5 -15.5t144.5 -50t142.5 -84t129.5 -121.5t106 -158t71.5 -199t26.5 -240q0 -168 -40.5 -307t-110.5 -235t-166.5 -162t-207 -97t-232.5 -31q-123 0 -234 31.5t-207.5 98.5t-167.5 164 t-111.5 236.5t-40.5 307.5zM463 799q0 -177 21 -317t55.5 -228t81.5 -146t95.5 -81t101.5 -23t101 22.5t94.5 79.5t80.5 144t54.5 226.5t20.5 316.5q0 242 -23.5 408t-70.5 259t-108.5 132.5t-147.5 41.5q-69 -1 -121.5 -24.5t-98 -81.5t-74.5 -151.5t-45.5 -238.5 t-16.5 -339zM555 2010.5q7 32.5 27 59.5q33 45 91 49.5t103.5 -30t45.5 -90.5q0 -71 41.5 -121.5t130.5 -50.5l18 -35q-106 0 -158.5 3t-119 22t-119.5 58q-39 28 -53 65.5t-7 70z" />
<glyph unicode="&#xd3;" horiz-adv-x="1630" d="M57 807q0 175 51 323t131.5 245t183 165.5t203 98.5t193.5 30q65 0 135.5 -15.5t144.5 -50t142.5 -84t129.5 -121.5t106 -158t71.5 -199t26.5 -240q0 -168 -40.5 -307t-110.5 -235t-166.5 -162t-207 -97t-232.5 -31q-123 0 -234 31.5t-207.5 98.5t-167.5 164 t-111.5 236.5t-40.5 307.5zM463 799q0 -177 21 -317t55.5 -228t81.5 -146t95.5 -81t101.5 -23t101 22.5t94.5 79.5t80.5 144t54.5 226.5t20.5 316.5q0 242 -23.5 408t-70.5 259t-108.5 132.5t-147.5 41.5q-69 -1 -121.5 -24.5t-98 -81.5t-74.5 -151.5t-45.5 -238.5 t-16.5 -339zM594 1792q106 0 158.5 3t118.5 22t119 58q39 28 53 65.5t7.5 70t-26.5 59.5q-33 45 -91.5 49.5t-104 -30t-45.5 -90.5q0 -71 -41 -121.5t-130 -50.5z" />
<glyph unicode="&#xd4;" horiz-adv-x="1630" d="M57 807q0 175 51 323t131.5 245t183 165.5t203 98.5t193.5 30q65 0 135.5 -15.5t144.5 -50t142.5 -84t129.5 -121.5t106 -158t71.5 -199t26.5 -240q0 -168 -40.5 -307t-110.5 -235t-166.5 -162t-207 -97t-232.5 -31q-123 0 -234 31.5t-207.5 98.5t-167.5 164 t-111.5 236.5t-40.5 307.5zM463 799q0 -177 21 -317t55.5 -228t81.5 -146t95.5 -81t101.5 -23t101 22.5t94.5 79.5t80.5 144t54.5 226.5t20.5 316.5q0 242 -23.5 408t-70.5 259t-108.5 132.5t-147.5 41.5q-69 -1 -121.5 -24.5t-98 -81.5t-74.5 -151.5t-45.5 -238.5 t-16.5 -339zM465 1792h59q58 37 165 80.5t130 56.5q23 -13 130 -56.5t165 -80.5h59l-281 317h-73h-73z" />
<glyph unicode="&#xd5;" horiz-adv-x="1630" d="M57 807q0 175 51 323t131.5 245t183 165.5t203 98.5t193.5 30q65 0 135.5 -15.5t144.5 -50t142.5 -84t129.5 -121.5t106 -158t71.5 -199t26.5 -240q0 -168 -40.5 -307t-110.5 -235t-166.5 -162t-207 -97t-232.5 -31q-123 0 -234 31.5t-207.5 98.5t-167.5 164 t-111.5 236.5t-40.5 307.5zM463 799q0 -177 21 -317t55.5 -228t81.5 -146t95.5 -81t101.5 -23t101 22.5t94.5 79.5t80.5 144t54.5 226.5t20.5 316.5q0 242 -23.5 408t-70.5 259t-108.5 132.5t-147.5 41.5q-69 -1 -121.5 -24.5t-98 -81.5t-74.5 -151.5t-45.5 -238.5 t-16.5 -339zM502 1973.5q-30 -77.5 6 -154.5l11 9q-39 81 51 124q36 17 73 8t68 -34t68 -54t73 -51.5t82.5 -27t96.5 18.5q78 37 106.5 113.5t-11.5 166.5l-13 -6q43 -91 -55 -138q-37 -17 -76.5 -9.5t-71.5 31t-69.5 51.5t-71 51t-75.5 29t-83 -13q-79 -37 -109 -114.5z " />
<glyph unicode="&#xd6;" horiz-adv-x="1630" d="M57 807q0 175 51 323t131.5 245t183 165.5t203 98.5t193.5 30q65 0 135.5 -15.5t144.5 -50t142.5 -84t129.5 -121.5t106 -158t71.5 -199t26.5 -240q0 -168 -40.5 -307t-110.5 -235t-166.5 -162t-207 -97t-232.5 -31q-123 0 -234 31.5t-207.5 98.5t-167.5 164 t-111.5 236.5t-40.5 307.5zM463 799q0 -177 21 -317t55.5 -228t81.5 -146t95.5 -81t101.5 -23t101 22.5t94.5 79.5t80.5 144t54.5 226.5t20.5 316.5q0 242 -23.5 408t-70.5 259t-108.5 132.5t-147.5 41.5q-69 -1 -121.5 -24.5t-98 -81.5t-74.5 -151.5t-45.5 -238.5 t-16.5 -339zM539 1907q0 47 31 82t77 32q47 0 78.5 -33.5t31.5 -80.5q0 -48 -31.5 -81.5t-78.5 -33.5t-77.5 33.5t-30.5 81.5zM881 1907q0 47 31 82t77 32q47 0 78.5 -33.5t31.5 -80.5q0 -48 -31.5 -81.5t-78.5 -33.5t-77.5 33.5t-30.5 81.5z" />
<glyph unicode="&#xd9;" horiz-adv-x="1849" d="M35 1622q8 -1 20.5 -4t45.5 -15t58 -27.5t45.5 -45.5t20.5 -66l1 -822q0 -138 50.5 -260.5t139.5 -214t220.5 -145t286.5 -53.5q152 0 271 50.5t194.5 141.5t114.5 213t39 268l3 710q0 44 14.5 82.5t37.5 65t51 48.5t56.5 35.5t51.5 22.5t38 12l14 4v16 q-128 -27 -268.5 -27t-217.5 13l-76 14v-16q11 -2 28.5 -7t63 -26.5t80 -49t63 -77.5t28.5 -110l-1 -727q0 -130 -34.5 -236.5t-88.5 -173t-124 -112t-136 -64t-129 -18.5q-94 0 -173.5 38t-130.5 101t-79.5 144t-28.5 169v991q0 36 19.5 65.5t47.5 46t56 27.5t47 15l20 4 v16q-164 -29 -384.5 -28t-354.5 28v-16zM696.5 2010.5q6.5 32.5 26.5 59.5q33 45 91.5 49.5t104 -30t45.5 -90.5q0 -71 41 -121.5t130 -50.5l18 -35q-106 0 -158.5 3t-118.5 22t-119 58q-39 28 -53 65.5t-7.5 70z" />
<glyph unicode="&#xda;" horiz-adv-x="1849" d="M35 1622q8 -1 20.5 -4t45.5 -15t58 -27.5t45.5 -45.5t20.5 -66l1 -822q0 -138 50.5 -260.5t139.5 -214t220.5 -145t286.5 -53.5q152 0 271 50.5t194.5 141.5t114.5 213t39 268l3 710q0 44 14.5 82.5t37.5 65t51 48.5t56.5 35.5t51.5 22.5t38 12l14 4v16 q-128 -27 -268.5 -27t-217.5 13l-76 14v-16q11 -2 28.5 -7t63 -26.5t80 -49t63 -77.5t28.5 -110l-1 -727q0 -130 -34.5 -236.5t-88.5 -173t-124 -112t-136 -64t-129 -18.5q-94 0 -173.5 38t-130.5 101t-79.5 144t-28.5 169v991q0 36 19.5 65.5t47.5 46t56 27.5t47 15l20 4 v16q-164 -29 -384.5 -28t-354.5 28v-16zM776 1792q106 0 158.5 3t118.5 22t119 58q39 28 53 65.5t7.5 70t-26.5 59.5q-33 45 -91.5 49.5t-104 -30t-45.5 -90.5q0 -71 -41 -121.5t-130 -50.5z" />
<glyph unicode="&#xdb;" horiz-adv-x="1849" d="M35 1622q8 -1 20.5 -4t45.5 -15t58 -27.5t45.5 -45.5t20.5 -66l1 -822q0 -138 50.5 -260.5t139.5 -214t220.5 -145t286.5 -53.5q152 0 271 50.5t194.5 141.5t114.5 213t39 268l3 710q0 44 14.5 82.5t37.5 65t51 48.5t56.5 35.5t51.5 22.5t38 12l14 4v16 q-128 -27 -268.5 -27t-217.5 13l-76 14v-16q11 -2 28.5 -7t63 -26.5t80 -49t63 -77.5t28.5 -110l-1 -727q0 -130 -34.5 -236.5t-88.5 -173t-124 -112t-136 -64t-129 -18.5q-94 0 -173.5 38t-130.5 101t-79.5 144t-28.5 169v991q0 36 19.5 65.5t47.5 46t56 27.5t47 15l20 4 v16q-164 -29 -384.5 -28t-354.5 28v-16zM639 1792h60q58 37 164.5 80.5t129.5 56.5q23 -13 130 -56.5t165 -80.5h59l-280 317h-74h-73z" />
<glyph unicode="&#xdc;" horiz-adv-x="1849" d="M35 1622q8 -1 20.5 -4t45.5 -15t58 -27.5t45.5 -45.5t20.5 -66l1 -822q0 -138 50.5 -260.5t139.5 -214t220.5 -145t286.5 -53.5q152 0 271 50.5t194.5 141.5t114.5 213t39 268l3 710q0 44 14.5 82.5t37.5 65t51 48.5t56.5 35.5t51.5 22.5t38 12l14 4v16 q-128 -27 -268.5 -27t-217.5 13l-76 14v-16q11 -2 28.5 -7t63 -26.5t80 -49t63 -77.5t28.5 -110l-1 -727q0 -130 -34.5 -236.5t-88.5 -173t-124 -112t-136 -64t-129 -18.5q-94 0 -173.5 38t-130.5 101t-79.5 144t-28.5 169v991q0 36 19.5 65.5t47.5 46t56 27.5t47 15l20 4 v16q-164 -29 -384.5 -28t-354.5 28v-16zM695 1907q0 47 31 82t77 32q47 0 78.5 -33.5t31.5 -80.5q0 -48 -31.5 -81.5t-78.5 -33.5t-77.5 33.5t-30.5 81.5zM1037 1907q0 48 30.5 82.5t76.5 31.5q47 0 79 -33.5t32 -80.5q0 -48 -32 -81.5t-79 -33.5q-46 0 -76.5 33.5 t-30.5 81.5z" />
<glyph unicode="&#xdd;" horiz-adv-x="1738" d="M20 1622v16q134 -27 354 -28t384 28v-16q-3 0 -7.5 -1t-18 -4.5t-26.5 -8t-29 -11.5t-29 -15t-24 -19.5t-16 -24t-3 -29t13 -33.5l354 -562l250 397q29 46 46 85.5t22.5 68.5t4 53t-9.5 39.5t-19 28t-23 19t-22 11t-17 5.5l-7 1v16q271 -35 520 0l2 -16 q-49 0 -132.5 -40.5t-180 -121.5t-156.5 -176l-265 -421v-689q0 -37 19.5 -66.5t47.5 -46t56.5 -27.5t47.5 -14l20 -4v-14q-158 16 -378.5 15.5t-359.5 -15.5v14q8 1 21 4t45.5 15t58 27.5t46 45.5t20.5 66v622l-418 668q-41 71 -93.5 113.5t-97.5 44.5zM730 1792 q106 0 158.5 3t118.5 22t119 58q39 28 53 65.5t7 70t-27 59.5q-33 45 -91 49.5t-103.5 -30t-45.5 -90.5q0 -71 -41 -121.5t-130 -50.5z" />
<glyph unicode="&#xe0;" horiz-adv-x="1052" d="M49 633v4q0 68 80 168q79 94 212 166.5t273 72.5q216 0 273 -163q14 -51 14 -88v-666q0 -46 47 -59q1 0 4 -1t4 -1q21 0 62 26l14 -10q-28 -37 -88 -69.5t-117 -32.5q-91 0 -144 39.5t-56 115.5q-49 -69 -146.5 -112t-189.5 -43q-95 0 -166.5 59t-71.5 147v7 q0 45 18.5 85.5t48 69.5t67.5 54.5t77 44.5t75 36l7.5 3t6.5 3t7 3q33 15 267 107v282q0 59 -16 89t-64 31q-89 0 -142 -40t-53 -121l2 -97q0 -98 -43 -161.5t-125 -63.5h-4q-54 0 -93.5 32.5t-39.5 82.5zM264.5 1386.5q6.5 32.5 26.5 59.5q33 45 91.5 49.5t104 -30 t45.5 -90.5q0 -71 41 -121.5t130 -50.5l18 -36q-106 0 -158.5 3t-118.5 22t-119 58q-39 28 -53 66t-7.5 70.5zM336 256q1 -31 3.5 -54.5t11 -49t22 -42t37 -27.5t55.5 -11q40 0 88 33.5t74 82.5v373q-59 -19 -93 -32.5t-77 -38t-66 -52t-39 -70.5t-16 -98v-14z" />
<glyph unicode="&#xe2;" horiz-adv-x="1052" d="M49 633v4q0 68 80 168q79 94 212 166.5t273 72.5q216 0 273 -163q14 -51 14 -88v-666q0 -46 47 -59q1 0 4 -1t4 -1q21 0 62 26l14 -10q-28 -37 -88 -69.5t-117 -32.5q-91 0 -144 39.5t-56 115.5q-49 -69 -146.5 -112t-189.5 -43q-95 0 -166.5 59t-71.5 147v7 q0 45 18.5 85.5t48 69.5t67.5 54.5t77 44.5t75 36l7.5 3t6.5 3t7 3q33 15 267 107v282q0 59 -16 89t-64 31q-89 0 -142 -40t-53 -121l2 -97q0 -98 -43 -161.5t-125 -63.5h-4q-54 0 -93.5 32.5t-39.5 82.5zM170 1167h60q58 37 164.5 80.5t129.5 56.5q23 -13 130 -56.5 t165 -80.5h59l-280 318h-74h-73zM336 256q1 -31 3.5 -54.5t11 -49t22 -42t37 -27.5t55.5 -11q40 0 88 33.5t74 82.5v373q-59 -19 -93 -32.5t-77 -38t-66 -52t-39 -70.5t-16 -98v-14z" />
<glyph unicode="&#xe3;" horiz-adv-x="1052" d="M49 633v4q0 68 80 168q79 94 212 166.5t273 72.5q216 0 273 -163q14 -51 14 -88v-666q0 -46 47 -59q1 0 4 -1t4 -1q21 0 62 26l14 -10q-28 -37 -88 -69.5t-117 -32.5q-91 0 -144 39.5t-56 115.5q-49 -69 -146.5 -112t-189.5 -43q-95 0 -166.5 59t-71.5 147v7 q0 45 18.5 85.5t48 69.5t67.5 54.5t77 44.5t75 36l7.5 3t6.5 3t7 3q33 15 267 107v282q0 59 -16 89t-64 31q-89 0 -142 -40t-53 -121l2 -97q0 -98 -43 -161.5t-125 -63.5h-4q-54 0 -93.5 32.5t-39.5 82.5zM232.5 1377.5q-29.5 -77.5 6.5 -154.5l11 9q-39 81 51 124 q36 17 73 8t68 -34t68 -54t73 -52t82.5 -27.5t96.5 18.5q78 37 106.5 114t-11.5 167l-13 -7q43 -91 -55 -138q-37 -17 -76.5 -9.5t-72 31.5t-69.5 51.5t-71 51t-76 29.5t-83 -13q-79 -37 -108.5 -114.5zM336 256q1 -31 3.5 -54.5t11 -49t22 -42t37 -27.5t55.5 -11 q40 0 88 33.5t74 82.5v373q-59 -19 -93 -32.5t-77 -38t-66 -52t-39 -70.5t-16 -98v-14z" />
<glyph unicode="&#xe4;" horiz-adv-x="1052" d="M49 633v4q0 68 80 168q79 94 212 166.5t273 72.5q216 0 273 -163q14 -51 14 -88v-666q0 -46 47 -59q1 0 4 -1t4 -1q21 0 62 26l14 -10q-28 -37 -88 -69.5t-117 -32.5q-91 0 -144 39.5t-56 115.5q-49 -69 -146.5 -112t-189.5 -43q-95 0 -166.5 59t-71.5 147v7 q0 45 18.5 85.5t48 69.5t67.5 54.5t77 44.5t75 36l7.5 3t6.5 3t7 3q33 15 267 107v282q0 59 -16 89t-64 31q-89 0 -142 -40t-53 -121l2 -97q0 -98 -43 -161.5t-125 -63.5h-4q-54 0 -93.5 32.5t-39.5 82.5zM249 1283q0 48 30.5 82.5t76.5 31.5q47 0 78.5 -33.5t31.5 -80.5 q0 -48 -31.5 -82t-78.5 -34q-46 0 -76.5 34t-30.5 82zM336 256q1 -31 3.5 -54.5t11 -49t22 -42t37 -27.5t55.5 -11q40 0 88 33.5t74 82.5v373q-59 -19 -93 -32.5t-77 -38t-66 -52t-39 -70.5t-16 -98v-14zM590 1283q0 47 31 82t77 32q47 0 78.5 -33.5t31.5 -80.5 q0 -48 -31.5 -82t-78.5 -34t-77.5 34t-30.5 82z" />
<glyph unicode="&#xe6;" horiz-adv-x="1665" d="M49 637q0 68 80 168q79 94 212 166.5t273 72.5q160 0 234 -92q134 92 305 92q97 0 182.5 -43t141.5 -110t88 -146.5t32 -154.5h-274h-413q10 -79 38.5 -150.5t74.5 -130t114.5 -93t150.5 -34.5q28 0 50.5 2t56.5 10.5t62.5 24t60 45t57.5 70.5l20 -2q0 -3 -5.5 -21.5 t-20.5 -51.5t-37 -69.5t-58 -74.5t-80 -68.5t-107.5 -50t-135.5 -19.5q-152 0 -274 71.5t-190 194.5q-14 -73 -82 -135.5t-153.5 -95t-160.5 -32.5q-95 0 -166.5 59t-71.5 147q-1 47 18 89.5t47.5 71.5t71.5 57t77.5 45t78.5 37q2 1 3.5 1.5t3.5 1.5t3.5 1.5t3.5 1.5 q56 26 262 105l5 284q1 58 -15.5 88.5t-64.5 31.5q-89 0 -142 -40t-53 -121l2 -97q0 -99 -44 -162.5t-128 -62.5q-55 0 -94.5 34t-38.5 85zM336 256q1 -31 3.5 -54.5t11 -49t22 -42t37 -27.5t55.5 -11q57 0 125.5 67.5t74.5 148.5q-44 102 -44 222v19v30q-58 -19 -93 -33 t-77.5 -39.5t-65 -54t-37 -73.5t-12.5 -103zM906 627h417q0 46 -1.5 80.5t-6 76.5t-11.5 72.5t-20 61t-30.5 49.5t-43 31t-57.5 12q-85 0 -144.5 -55.5t-84 -141t-18.5 -186.5z" />
<glyph unicode="&#xe7;" horiz-adv-x="1089" d="M68 510q0 -228 151 -379t379 -151q71 0 134.5 19.5t107 50.5t80 68.5t58.5 75t37 68.5t21 50l6 20l-20 2q-32 -51 -70.5 -83.5t-80 -45.5t-70.5 -17t-66 -4q-178 0 -286 154q-90 128 -97 304q-6 169 68 274q69 93 180 94q29 1 54.5 -11t48 -41.5t27.5 -79t-9 -124.5 q-24 -100 18 -167t113 -67q25 0 47.5 7t44.5 23t34.5 48.5t12.5 77.5q0 61 -26 124.5t-73 118.5t-122.5 90t-165.5 35q-148 0 -271 -70t-193.5 -192.5t-71.5 -271.5zM346.5 -282q3.5 -47 40.5 -74q22 -16 51.5 -21t62.5 6.5t55 41.5q27 36 39.5 87t14.5 89.5t2 119.5v25 l-28 -15q0 -72 -41 -105t-99 -33q-45 0 -73 -37t-24.5 -84z" />
<glyph unicode="&#xea;" horiz-adv-x="1112" d="M68 510q0 148 69.5 270.5t192 193t270.5 70.5q97 0 182.5 -43t141.5 -110t88 -146.5t32 -154.5h-274h-413q10 -79 38.5 -150.5t74.5 -130t114.5 -93t150.5 -34.5q28 0 50.5 2t56.5 10.5t62.5 24t60 45t57.5 70.5l20 -2q0 -3 -5.5 -21.5t-20.5 -51.5t-37 -69.5t-58 -74.5 t-80 -68.5t-107.5 -50t-135.5 -19.5q-227 0 -378.5 152t-151.5 381zM246 1167h59q58 37 165 80.5t130 56.5q23 -13 130 -56.5t165 -80.5h59l-281 318h-73h-73zM353 627h417q0 46 -1.5 80.5t-6 76.5t-11.5 72.5t-20 61t-30.5 49.5t-43 31t-57.5 12q-85 0 -144.5 -55.5 t-84 -141t-18.5 -186.5z" />
<glyph unicode="&#xeb;" horiz-adv-x="1112" d="M68 510q0 148 69.5 270.5t192 193t270.5 70.5q97 0 182.5 -43t141.5 -110t88 -146.5t32 -154.5h-274h-413q10 -79 38.5 -150.5t74.5 -130t114.5 -93t150.5 -34.5q28 0 50.5 2t56.5 10.5t62.5 24t60 45t57.5 70.5l20 -2q0 -3 -5.5 -21.5t-20.5 -51.5t-37 -69.5t-58 -74.5 t-80 -68.5t-107.5 -50t-135.5 -19.5q-227 0 -378.5 152t-151.5 381zM306 1283q0 47 31 82t77 32q47 0 78.5 -33.5t31.5 -80.5q0 -48 -31.5 -82t-78.5 -34t-77.5 34t-30.5 82zM353 627h417q0 46 -1.5 80.5t-6 76.5t-11.5 72.5t-20 61t-30.5 49.5t-43 31t-57.5 12 q-85 0 -144.5 -55.5t-84 -141t-18.5 -186.5zM648 1283q0 48 30.5 82.5t76.5 31.5q47 0 78.5 -33.5t31.5 -80.5q0 -48 -31.5 -82t-78.5 -34q-46 0 -76.5 34t-30.5 82z" />
<glyph unicode="&#xec;" d="M20 887v12q103 16 138.5 22t100.5 21.5t108.5 34.5t91.5 49l14 -2v-903q-1 -37 27 -62t65 -34l31 -9v-16q-263 33 -520 0q0 10 -2 16l30 9q33 7 63.5 32t29.5 54l2 544q0 93 -48.5 152t-130.5 80zM47.5 1386.5q6.5 32.5 26.5 59.5q33 45 91.5 49.5t104 -30t45.5 -90.5 q0 -71 41 -121.5t130 -50.5l18 -36q-106 0 -158.5 3t-118.5 22t-119 58q-39 28 -53 66t-7.5 70.5z" />
<glyph unicode="&#xed;" d="M20 887v12q103 16 138.5 22t100.5 21.5t108.5 34.5t91.5 49l14 -2v-903q-1 -37 27 -62t65 -34l31 -9v-16q-263 33 -520 0q0 10 -2 16l30 9q33 7 63.5 32t29.5 54l2 544q0 93 -48.5 152t-130.5 80zM31 1167q106 0 158.5 3t118.5 22t119 58q39 28 53 66t7.5 70.5 t-26.5 59.5q-33 45 -91.5 49.5t-104 -30t-45.5 -90.5q0 -71 -41 -121.5t-130 -50.5z" />
<glyph unicode="&#xee;" d="M-48 1208h59q58 37 165 80.5t130 56.5q23 -13 130 -56.5t165 -80.5h59l-280 318h-74h-73zM20 887v12q103 16 138.5 22t100.5 21.5t108.5 34.5t91.5 49l14 -2v-903q-1 -37 27 -62t65 -34l31 -9v-16q-263 33 -520 0q0 10 -2 16l30 9q33 7 63.5 32t29.5 54l2 544 q0 93 -48.5 152t-130.5 80z" />
<glyph unicode="&#xef;" d="M20 887v12q103 16 138.5 22t100.5 21.5t108.5 34.5t91.5 49l14 -2v-903q-1 -37 27 -62t65 -34l31 -9v-16q-263 33 -520 0q0 10 -2 16l30 9q33 7 63.5 32t29.5 54l2 544q0 93 -48.5 152t-130.5 80zM26 1283q0 48 30.5 82.5t76.5 31.5q47 0 78.5 -33.5t31.5 -80.5 q0 -48 -31.5 -82t-78.5 -34q-46 0 -76.5 34t-30.5 82zM367 1283q0 47 31 82t77 32q47 0 78.5 -33.5t31.5 -80.5q0 -48 -31.5 -82t-78.5 -34t-77.5 34t-30.5 82z" />
<glyph unicode="&#xf1;" horiz-adv-x="1263" d="M27 887v12q203 32 266 49q90 26 172 76l14 -2v-153q113 83 208.5 127.5t163 49.5t119 -14.5t82 -64t45.5 -99t15 -120.5l2 -627q-3 -42 31 -66q27 -21 61 -30l31 -9q-2 -6 -2 -16q-249 35 -520 0v16l30 9q33 7 62 30q31 25 31 56v536q0 88 -15 147.5t-38.5 86.5t-56.5 34 t-65.5 -1.5t-69 -29t-62.5 -40t-52 -42.5v-681q-1 -37 27 -62t65 -34l31 -9v-16q-280 36 -522 0v16l31 9q32 7 62.5 31.5t29.5 54.5l2 544q0 93 -48 152t-130 80zM314.5 1352.5q-29.5 -77.5 6.5 -154.5l11 9q-39 81 51 124q36 17 73 8t68 -34t68 -54t73 -52t82.5 -27.5 t96.5 18.5q78 37 106.5 114t-11.5 167l-13 -6q43 -91 -55 -138q-37 -17 -76.5 -9.5t-72 31t-69.5 51.5t-71 51t-76 29t-83 -13q-79 -37 -108.5 -114.5z" />
<glyph unicode="&#xf2;" horiz-adv-x="1216" d="M59 514q0 225 160 379q160 151 387 151q229 0 389 -151q159 -153 162 -379q-3 -233 -162 -383q-157 -151 -389 -151q-230 0 -387 151q-160 151 -160 383zM391 489q0 -51 0.5 -81t2.5 -76t6 -74t11.5 -65t18 -59.5t27 -47t37.5 -38t49 -22t63 -8.5t63.5 8.5t49.5 22 t37.5 37.5t27.5 46.5t18.5 59.5t11.5 65t6 74t2.5 76.5t0.5 81.5v27v27q0 50 -0.5 80.5t-2.5 75.5t-6 73t-11.5 64.5t-18.5 59t-27.5 46.5t-37.5 37.5t-49.5 22t-63.5 8.5t-63 -8.5t-49 -22t-37.5 -38t-27 -47t-18 -59t-11.5 -64.5t-6 -73t-2.5 -75t-0.5 -80v-27v-27z M391.5 1386.5q6.5 32.5 26.5 59.5q33 45 91.5 49.5t104 -30t45.5 -90.5q0 -71 41 -121.5t130 -50.5l18 -36q-106 0 -158.5 3t-118.5 22t-119 58q-39 28 -53 66t-7.5 70.5z" />
<glyph unicode="&#xf3;" horiz-adv-x="1216" d="M59 514q0 225 160 379q160 151 387 151q229 0 389 -151q159 -153 162 -379q-3 -233 -162 -383q-157 -151 -389 -151q-230 0 -387 151q-160 151 -160 383zM385 1167q106 0 158.5 3t118.5 22t119 58q39 28 53 66t7.5 70.5t-26.5 59.5q-33 45 -91.5 49.5t-104 -30 t-45.5 -90.5q0 -71 -41 -121.5t-130 -50.5zM391 489q0 -51 0.5 -81t2.5 -76t6 -74t11.5 -65t18 -59.5t27 -47t37.5 -38t49 -22t63 -8.5t63.5 8.5t49.5 22t37.5 37.5t27.5 46.5t18.5 59.5t11.5 65t6 74t2.5 76.5t0.5 81.5v27v27q0 50 -0.5 80.5t-2.5 75.5t-6 73t-11.5 64.5 t-18.5 59t-27.5 46.5t-37.5 37.5t-49.5 22t-63.5 8.5t-63 -8.5t-49 -22t-37.5 -38t-27 -47t-18 -59t-11.5 -64.5t-6 -73t-2.5 -75t-0.5 -80v-27v-27z" />
<glyph unicode="&#xf4;" horiz-adv-x="1216" d="M59 514q0 225 160 379q160 151 387 151q229 0 389 -151q159 -153 162 -379q-3 -233 -162 -383q-157 -151 -389 -151q-230 0 -387 151q-160 151 -160 383zM251 1208h59q58 37 165 80.5t130 56.5q23 -13 130 -56.5t165 -80.5h59l-280 318h-74h-73zM391 489q0 -51 0.5 -81 t2.5 -76t6 -74t11.5 -65t18 -59.5t27 -47t37.5 -38t49 -22t63 -8.5t63.5 8.5t49.5 22t37.5 37.5t27.5 46.5t18.5 59.5t11.5 65t6 74t2.5 76.5t0.5 81.5v27v27q0 50 -0.5 80.5t-2.5 75.5t-6 73t-11.5 64.5t-18.5 59t-27.5 46.5t-37.5 37.5t-49.5 22t-63.5 8.5t-63 -8.5 t-49 -22t-37.5 -38t-27 -47t-18 -59t-11.5 -64.5t-6 -73t-2.5 -75t-0.5 -80v-27v-27z" />
<glyph unicode="&#xf5;" horiz-adv-x="1216" d="M59 514q0 225 160 379q160 151 387 151q229 0 389 -151q159 -153 162 -379q-3 -233 -162 -383q-157 -151 -389 -151q-230 0 -387 151q-160 151 -160 383zM289 1349.5q-30 -77.5 6 -154.5l11 9q-39 81 51 124q36 17 73 8t68 -34t68 -54t73 -52t82.5 -27.5t96.5 18.5 q78 37 106.5 114t-11.5 167l-13 -6q44 -92 -54 -139q-37 -17 -76.5 -9.5t-72 31.5t-69.5 51.5t-71 51t-76 29.5t-83 -13q-79 -37 -109 -114.5zM391 489q0 -51 0.5 -81t2.5 -76t6 -74t11.5 -65t18 -59.5t27 -47t37.5 -38t49 -22t63 -8.5t63.5 8.5t49.5 22t37.5 37.5 t27.5 46.5t18.5 59.5t11.5 65t6 74t2.5 76.5t0.5 81.5v27v27q0 50 -0.5 80.5t-2.5 75.5t-6 73t-11.5 64.5t-18.5 59t-27.5 46.5t-37.5 37.5t-49.5 22t-63.5 8.5t-63 -8.5t-49 -22t-37.5 -38t-27 -47t-18 -59t-11.5 -64.5t-6 -73t-2.5 -75t-0.5 -80v-27v-27z" />
<glyph unicode="&#xf6;" horiz-adv-x="1216" d="M59 514q0 225 160 379q160 151 387 151q229 0 389 -151q159 -153 162 -379q-3 -233 -162 -383q-157 -151 -389 -151q-230 0 -387 151q-160 151 -160 383zM322 1283q0 47 31 82t77 32q47 0 78.5 -33.5t31.5 -80.5q0 -48 -31.5 -82t-78.5 -34t-77.5 34t-30.5 82zM391 489 q0 -51 0.5 -81t2.5 -76t6 -74t11.5 -65t18 -59.5t27 -47t37.5 -38t49 -22t63 -8.5t63.5 8.5t49.5 22t37.5 37.5t27.5 46.5t18.5 59.5t11.5 65t6 74t2.5 76.5t0.5 81.5v27v27q0 50 -0.5 80.5t-2.5 75.5t-6 73t-11.5 64.5t-18.5 59t-27.5 46.5t-37.5 37.5t-49.5 22t-63.5 8.5 t-63 -8.5t-49 -22t-37.5 -38t-27 -47t-18 -59t-11.5 -64.5t-6 -73t-2.5 -75t-0.5 -80v-27v-27zM664 1283q0 47 31 82t77 32q47 0 78.5 -33.5t31.5 -80.5q0 -48 -31.5 -82t-78.5 -34t-77.5 34t-30.5 82z" />
<glyph unicode="&#xf7;" horiz-adv-x="1105" d="M133 494v155h832v-155h-832zM444 278q0 47 30.5 80.5t77.5 33.5t78.5 -33.5t31.5 -80.5q0 -48 -31.5 -81.5t-78.5 -33.5t-77.5 33.5t-30.5 81.5zM444 869q0 47 30.5 80.5t77.5 33.5t78.5 -33.5t31.5 -80.5q0 -48 -31.5 -81.5t-78.5 -33.5t-77.5 33.5t-30.5 81.5z" />
<glyph unicode="&#xf9;" horiz-adv-x="1271" d="M27 889v12q137 20 260 51q92 20 178 72h16v-644q0 -87 15 -146t38 -86t56 -34.5t65 0.5t68.5 28t62.5 39t52 41v435q0 95 -50 154q-49 58 -126 78v12q137 20 260 51q92 20 178 72h16v-801q0 -40 35 -80q34 -34 61 -45q31 -12 31 -6q2 -4 2 -8t-2 -6l-2 -4q-62 6 -203 -25 q-126 -28 -186 -57l-14 8v156q-134 -97 -243 -140.5t-179.5 -36.5t-119 49.5t-69 106.5t-20.5 144l-2 378q0 96 -49 154q-48 57 -129 78zM424.5 1386.5q6.5 32.5 26.5 59.5q33 45 91 49.5t103.5 -30t45.5 -90.5q0 -71 41.5 -121.5t130.5 -50.5l18 -36q-106 0 -158.5 3 t-118.5 22t-119 58q-39 28 -53 66t-7.5 70.5z" />
<glyph unicode="&#xfa;" horiz-adv-x="1271" d="M27 889v12q137 20 260 51q92 20 178 72h16v-644q0 -87 15 -146t38 -86t56 -34.5t65 0.5t68.5 28t62.5 39t52 41v435q0 95 -50 154q-49 58 -126 78v12q137 20 260 51q92 20 178 72h16v-801q0 -40 35 -80q34 -34 61 -45q31 -12 31 -6q2 -4 2 -8t-2 -6l-2 -4q-62 6 -203 -25 q-126 -28 -186 -57l-14 8v156q-134 -97 -243 -140.5t-179.5 -36.5t-119 49.5t-69 106.5t-20.5 144l-2 378q0 96 -49 154q-48 57 -129 78zM393 1167q106 0 158.5 3t118.5 22t119 58q39 28 53 66t7.5 70.5t-26.5 59.5q-33 45 -91.5 49.5t-104 -30t-45.5 -90.5 q0 -71 -41 -121.5t-130 -50.5z" />
<glyph unicode="&#xfb;" horiz-adv-x="1271" d="M27 889v12q137 20 260 51q92 20 178 72h16v-644q0 -87 15 -146t38 -86t56 -34.5t65 0.5t68.5 28t62.5 39t52 41v435q0 95 -50 154q-49 58 -126 78v12q137 20 260 51q92 20 178 72h16v-801q0 -40 35 -80q34 -34 61 -45q31 -12 31 -6q2 -4 2 -8t-2 -6l-2 -4q-62 6 -203 -25 q-126 -28 -186 -57l-14 8v156q-134 -97 -243 -140.5t-179.5 -36.5t-119 49.5t-69 106.5t-20.5 144l-2 378q0 96 -49 154q-48 57 -129 78zM273 1167h59q58 37 165 80.5t130 56.5q23 -13 129.5 -56.5t164.5 -80.5h60l-281 318h-73h-74z" />
<glyph unicode="&#xfc;" horiz-adv-x="1271" d="M27 889v12q137 20 260 51q92 20 178 72h16v-644q0 -87 15 -146t38 -86t56 -34.5t65 0.5t68.5 28t62.5 39t52 41v435q0 95 -50 154q-49 58 -126 78v12q137 20 260 51q92 20 178 72h16v-801q0 -40 35 -80q34 -34 61 -45q31 -12 31 -6q2 -4 2 -8t-2 -6l-2 -4q-62 6 -203 -25 q-126 -28 -186 -57l-14 8v156q-134 -97 -243 -140.5t-179.5 -36.5t-119 49.5t-69 106.5t-20.5 144l-2 378q0 96 -49 154q-48 57 -129 78zM351 1283q0 47 31 82t77 32q47 0 78.5 -33.5t31.5 -80.5q0 -48 -31.5 -82t-78.5 -34t-77.5 34t-30.5 82zM693 1283q0 48 30.5 82.5 t76.5 31.5q47 0 78.5 -33.5t31.5 -80.5q0 -48 -31.5 -82t-78.5 -34q-46 0 -76.5 34t-30.5 82z" />
<glyph unicode="&#xfd;" horiz-adv-x="1286" d="M20 1008l31 -11q27 -6 53 -29t39 -55l385 -911q-47 -118 -95 -118q-53 0 -68 55q-1 3 -2.5 8.5t-9.5 19t-19.5 24t-34 19t-51.5 8.5q-51 0 -92 -32.5t-41 -98.5q0 -82 50 -126t114 -44q48 0 93 26t74.5 60.5t55 76t36.5 65t15 34.5v1l36 72q1 0 1 1v2l297 598 q4 7 10.5 20t28.5 49.5t45.5 70t59 74.5t71 70.5t79 50t85.5 20.5q-2 10 -2 16q-250 -35 -521 0v-16q5 -1 13.5 -2.5t31.5 -10.5t42 -22t36.5 -39.5t23.5 -60.5t-4 -87t-40 -116l-149 -318l-212 553q-16 39 -11 62t36 30l31 11v16q-252 -34 -521 0v-16zM417 1167 q106 0 158.5 3t118.5 22t119 58q39 28 53 66t7.5 70.5t-26.5 59.5q-33 45 -91.5 49.5t-104 -30t-45.5 -90.5q0 -71 -41 -121.5t-130 -50.5z" />
<glyph unicode="&#xff;" horiz-adv-x="1286" d="M20 1008l31 -11q27 -6 53 -29t39 -55l385 -911q-47 -118 -95 -118q-53 0 -68 55q-1 3 -2.5 8.5t-9.5 19t-19.5 24t-34 19t-51.5 8.5q-51 0 -92 -32.5t-41 -98.5q0 -82 50 -126t114 -44q48 0 93 26t74.5 60.5t55 76t36.5 65t15 34.5v1l36 72q1 0 1 1v2l297 598 q4 7 10.5 20t28.5 49.5t45.5 70t59 74.5t71 70.5t79 50t85.5 20.5q-2 10 -2 16q-250 -35 -521 0v-16q5 -1 13.5 -2.5t31.5 -10.5t42 -22t36.5 -39.5t23.5 -60.5t-4 -87t-40 -116l-149 -318l-212 553q-16 39 -11 62t36 30l31 11v16q-252 -34 -521 0v-16zM362 1283q0 47 31 82 t77 32q47 0 78.5 -33.5t31.5 -80.5q0 -48 -31.5 -82t-78.5 -34t-77.5 34t-30.5 82zM704 1283q0 47 31 82t77 32q47 0 78.5 -33.5t31.5 -80.5q0 -48 -31.5 -82t-78.5 -34t-77.5 34t-30.5 82z" />
<glyph unicode="&#x152;" horiz-adv-x="2549" d="M57 807q0 -168 40.5 -307.5t111.5 -236.5t167.5 -164t207.5 -98.5t234 -31.5q90 -3 165 11q8 2 32 7q124 28 227 36t162.5 1.5t145.5 -15.5t155 -9h695l87 580h-19q-2 -11 -6 -31t-25 -76.5t-52 -108t-91 -114.5t-136 -108t-194 -76t-259 -31q-176 0 -175 139v625h61 q9 0 24 -1t59 -8.5t84.5 -20.5t89 -42t84 -67.5t59.5 -102t24 -141.5h19v798h-19q0 -78 -23.5 -141.5t-61 -102.5t-82.5 -67.5t-90 -41.5t-82.5 -20.5t-61.5 -8.5l-23 -1h-61v759q61 13 167 13q89 0 175 -24.5t152 -63t124.5 -85.5t99.5 -94t71 -85.5t45 -62.5l14 -25h19 l-158 417q-30 6 -82.5 16t-195.5 26t-264 16q-44 -1 -171 -14q-119 -13 -187 -13q-226 0 -339 30q-91 28 -181 28q-93 0 -193.5 -30t-203 -98.5t-183 -165.5t-131.5 -245t-51 -323zM463 799q0 194 16.5 339t45.5 238.5t74.5 151.5t98 81.5t121.5 24.5q86 -2 147.5 -41.5 t108.5 -132.5t70.5 -259t23.5 -408q0 -177 -20.5 -316.5t-54.5 -226.5t-80.5 -144t-94.5 -79.5t-101 -22.5t-101.5 23t-95.5 81t-81.5 146t-55.5 228t-21 317z" />
<glyph unicode="&#x153;" horiz-adv-x="1906" d="M59 514q0 225 160 379q160 151 387 151q229 0 389 -151q159 -153 162 -379q-3 -233 -162 -383q-157 -151 -389 -151q-230 0 -387 151q-160 151 -160 383zM391 489q0 -51 0.5 -81t2.5 -76t6 -74t11.5 -65t18 -59.5t27 -47t37.5 -38t49 -22t63 -8.5t63.5 8.5t49.5 22 t37.5 37.5t27.5 46.5t18.5 59.5t11.5 65t6 74t2.5 76.5t0.5 81.5v27v27q0 50 -0.5 80.5t-2.5 75.5t-6 73t-11.5 64.5t-18.5 59t-27.5 46.5t-37.5 37.5t-49.5 22t-63.5 8.5t-63 -8.5t-49 -22t-37.5 -38t-27 -47t-18 -59t-11.5 -64.5t-6 -73t-2.5 -75t-0.5 -80v-27v-27z M862 510q0 148 70 271t192.5 193t270.5 70q97 0 182.5 -43t141.5 -110t88 -146.5t32 -154.5h-274h-414q10 -79 38.5 -150.5t74.5 -130t115 -93t151 -34.5q28 0 50.5 2t56.5 10.5t62.5 24t60 45t57.5 70.5l20 -2q0 -3 -5.5 -21.5t-20.5 -51.5t-37 -69.5t-58 -74.5t-80 -68.5 t-107.5 -50t-135.5 -19.5q-227 0 -379 152t-152 381zM1148 627h417q0 46 -1.5 80.5t-6 76.5t-11.5 72.5t-20 61t-30.5 49.5t-43 31t-57.5 12q-85 0 -144.5 -55.5t-84 -141t-18.5 -186.5z" />
<glyph unicode="&#x2000;" horiz-adv-x="1063" />
<glyph unicode="&#x2001;" horiz-adv-x="2127" />
<glyph unicode="&#x2002;" horiz-adv-x="1063" />
<glyph unicode="&#x2003;" horiz-adv-x="2127" />
<glyph unicode="&#x2004;" horiz-adv-x="709" />
<glyph unicode="&#x2005;" horiz-adv-x="531" />
<glyph unicode="&#x2006;" horiz-adv-x="354" />
<glyph unicode="&#x2007;" horiz-adv-x="354" />
<glyph unicode="&#x2008;" horiz-adv-x="265" />
<glyph unicode="&#x2009;" horiz-adv-x="425" />
<glyph unicode="&#x200a;" horiz-adv-x="118" />
<glyph unicode="&#x2010;" horiz-adv-x="712" d="M86 350v156h557v-156h-557z" />
<glyph unicode="&#x2011;" horiz-adv-x="712" d="M86 350v156h557v-156h-557z" />
<glyph unicode="&#x2012;" horiz-adv-x="712" d="M86 350v156h557v-156h-557z" />
<glyph unicode="&#x2013;" horiz-adv-x="1179" d="M86 350v156h1024v-156h-1024z" />
<glyph unicode="&#x2014;" horiz-adv-x="2203" d="M86 350v156h2048v-156h-2048z" />
<glyph unicode="&#x2019;" horiz-adv-x="407" d="M75.5 1517q-7.5 40 6.5 75.5t46.5 61.5t73.5 25q52 -1 92 -37t39 -104q-1 -64 -25.5 -126t-53 -104.5t-91.5 -124.5l-17 35q25 44 37 78.5t13.5 55t-9.5 39t-19 25.5t-27.5 19.5t-25.5 16.5q-32 25 -39.5 65z" />
<glyph unicode="&#x201c;" horiz-adv-x="614" d="M23 1305q3 68 28 129.5t53 101.5t90 116l15 -39q-35 -44 -39.5 -93t12.5 -87.5t49 -71.5q30 -31 36 -74.5t-8 -79.5t-46 -58.5t-70 -14.5q-49 9 -86 54.5t-34 116.5zM323 1303q3 68 28 129.5t53 101.5t90 116l14 -39q-35 -44 -39.5 -93t13 -87.5t49.5 -71.5 q30 -31 36 -74.5t-8.5 -79.5t-46.5 -58.5t-70 -14.5q-49 9 -85.5 54.5t-33.5 116.5z" />
<glyph unicode="&#x201d;" horiz-adv-x="614" d="M30 1500.5q-6 43.5 8.5 79t46.5 58t70 14.5q49 -9 85.5 -54.5t33.5 -116.5q-3 -68 -27.5 -129t-53 -101.5t-89.5 -116.5l-15 40q35 44 39.5 93t-13 87.5t-49.5 71.5q-30 31 -36 74.5zM330 1498.5q-6 43.5 8.5 79t46.5 58t70 14.5q49 -9 85.5 -54.5t33.5 -116.5 q-3 -68 -28 -129.5t-53 -101.5t-90 -116l-15 40q35 44 39.5 93t-12.5 87.5t-49 71.5q-30 31 -36 74.5z" />
<glyph unicode="&#x202f;" horiz-adv-x="425" />
<glyph unicode="&#x205f;" horiz-adv-x="531" />
<glyph unicode="&#x25fc;" horiz-adv-x="1034" d="M0 0v1034h1034v-1034h-1034z" />
</font>
</defs>
</svg>
